<?xml version="1.0" encoding="UTF-8" standalone="no"?>
<!-- Created with Inkscape (http://www.inkscape.org/) -->

<svg
   xmlns:dc="http://purl.org/dc/elements/1.1/"
   xmlns:cc="http://creativecommons.org/ns#"
   xmlns:rdf="http://www.w3.org/1999/02/22-rdf-syntax-ns#"
   xmlns:svg="http://www.w3.org/2000/svg"
   xmlns="http://www.w3.org/2000/svg"
   xmlns:sodipodi="http://sodipodi.sourceforge.net/DTD/sodipodi-0.dtd"
   xmlns:inkscape="http://www.inkscape.org/namespaces/inkscape"
   width="16"
   height="16"
   viewBox="0 0 16 16.000001"
   version="1.1"
   id="svg8"
   sodipodi:docname="fest.svg"
   inkscape:version="0.92.2 5c3e80d, 2017-08-06">
  <defs
     id="defs2" />
  <sodipodi:namedview
     id="base"
     pagecolor="#ffffff"
     bordercolor="#666666"
     borderopacity="1.0"
     inkscape:pageopacity="0.0"
     inkscape:pageshadow="2"
     inkscape:zoom="22.4"
     inkscape:cx="0.69562746"
     inkscape:cy="6.1916287"
     inkscape:document-units="px"
     inkscape:current-layer="layer1"
     showgrid="false"
     inkscape:window-width="1366"
     inkscape:window-height="713"
     inkscape:window-x="0"
     inkscape:window-y="27"
     inkscape:window-maximized="1"
     units="px" />
  <metadata
     id="metadata5">
    <rdf:RDF>
      <cc:Work
         rdf:about="">
        <dc:format>image/svg+xml</dc:format>
        <dc:type
           rdf:resource="http://purl.org/dc/dcmitype/StillImage" />
        <dc:title />
      </cc:Work>
    </rdf:RDF>
  </metadata>
  <g
     inkscape:label="Layer 1"
     inkscape:groupmode="layer"
     id="layer1"
     transform="translate(0,-1106.5197)">
    <g
       transform="matrix(0.28572082,0,0,0.28572202,-35.429382,988.11938)"
       id="g1574-9-7-6-9">
      <path
         sodipodi:nodetypes="cccccc"
         inkscape:connector-curvature="0"
         id="path1551-4-1-7-4"
         d="m 141.24672,428.06618 -4.89616,10.69713 9.90973,21.67479 -0.76357,0.18276 9.03125,-2.79883 c -0.0856,-0.14011 -13.14779,-29.40512 -13.28125,-29.75585 z"
         style="fill:#5bd16a;fill-opacity:1;stroke:none;stroke-width:0.1317956px;stroke-linecap:butt;stroke-linejoin:miter;stroke-opacity:1" />
      <path
         inkscape:connector-curvature="0"
         id="path1547-9-1-3-8"
         d="m 158.29164,443.4275 c 1.45463,3.17427 5.22652,11.71185 5.19141,11.74024 l 0.0703,-0.0215 3.15625,-1.07031 c 0.61315,-0.22772 0.75541,-0.65655 0.35743,-1.15039 z"
         style="fill:#ab63be;fill-opacity:1;stroke:none;stroke-width:0.1317956px;stroke-linecap:butt;stroke-linejoin:miter;stroke-opacity:1" />
      <path
         inkscape:connector-curvature="0"
         id="path1545-0-5-6-1"
         d="m 132.41469,447.21461 -3.79492,8.43555 3.88477,8.99805 6.88085,-2.13282 z"
         style="fill:#ffc331;fill-opacity:1;stroke:none;stroke-width:0.1317956px;stroke-linecap:butt;stroke-linejoin:miter;stroke-opacity:1" />
      <path
         sodipodi:nodetypes="cccccc"
         inkscape:connector-curvature="0"
         id="path863-9-9-5-2"
         d="m 124.02981,465.66353 c 0.11467,-0.57283 4.58996,-10.01337 4.58996,-10.01337 l 3.88477,8.99805 c -0.0841,0.0443 -1.6e-4,4.5e-4 -3.47207,1.08728 -1.84837,0.57861 0,0 -3.59399,1.09224 -1.16075,0.29252 -1.55714,-0.50983 -1.40867,-1.1642 z"
         style="fill:#ff575a;fill-opacity:1;stroke-width:0.13179561" />
      <path
         sodipodi:nodetypes="ccccc"
         inkscape:connector-curvature="0"
         id="path861-1-7-6-9"
         d="m 132.41495,447.21553 c -0.005,-0.35687 3.93561,-8.45222 3.93561,-8.45222 l 9.90973,21.67479 -6.87022,2.08479 z"
         style="fill:#ffe91d;fill-opacity:1;stroke-width:0.13179561" />
      <path
         inkscape:connector-curvature="0"
         id="path859-7-7-3-3"
         d="m 154.52736,457.82193 c -0.0856,-0.14011 -13.14627,-29.40485 -13.27973,-29.75558 l 0.81871,-1.42472 c 0.16486,-0.19926 0.54378,-0.19146 0.76635,0.0515 l 15.45615,16.73117 c 1.45373,3.17213 5.22892,11.7143 5.1938,11.7427 l -8.95528,2.65503 z"
         style="fill:#58c2da;fill-opacity:1;stroke-width:0.13179561" />
    </g>
    <path
       style="fill:#ffd42a;stroke-width:0.03765619"
       d="m 12.609646,1116.1608 c -0.002,-0.047 -0.002,-0.4065 0.002,-0.7998 l 0.006,-0.7152 -0.35416,-0.2523 c -0.51979,-0.3704 -0.81687,-0.6284 -0.81687,-0.7094 0,-0.1 0.0803,-0.1339 0.80334,-0.3403 0.353,-0.1008 0.65334,-0.1963 0.66744,-0.2122 0.0141,-0.016 0.12321,-0.3203 0.24249,-0.6764 0.21716,-0.6483 0.29364,-0.7867 0.41007,-0.742 0.0342,0.013 0.24921,0.3015 0.47774,0.6407 l 0.4155,0.617 0.68615,5e-4 c 0.37739,3e-4 0.7243,0.011 0.77092,0.023 0.17918,0.048 0.0775,0.2443 -0.50991,0.9846 l -0.27738,0.3496 0.0633,0.2526 c 0.0349,0.139 0.12084,0.4361 0.19115,0.6604 0.14557,0.4643 0.15962,0.6122 0.061,0.6435 -0.0825,0.026 -0.14756,0.01 -0.87302,-0.2576 l -0.58191,-0.2123 -0.25638,0.1798 c -0.7727,0.542 -0.94417,0.6504 -1.0296,0.6504 -0.07,0 -0.0943,-0.021 -0.0979,-0.085 z"
       id="path857-1-7-8-6"
       inkscape:connector-curvature="0" />
    <path
       style="fill:#ffd42a;stroke-width:0.03765619"
       d="m 14.195666,1110.8365 c -0.0513,-0.035 -0.24312,-0.1878 -0.4264,-0.3388 -0.18327,-0.151 -0.3543,-0.2745 -0.38005,-0.2745 -0.0257,0 -0.24874,0.06 -0.49556,0.1327 -0.44567,0.1318 -0.61827,0.1421 -0.61827,0.037 0,-0.03 0.0434,-0.1696 0.0965,-0.3098 0.13023,-0.344 0.24256,-0.6777 0.24256,-0.7205 0,-0.019 -0.12715,-0.2338 -0.28254,-0.4767 -0.15541,-0.2428 -0.28255,-0.4629 -0.28255,-0.489 0,-0.082 0.0925,-0.09 0.62839,-0.055 0.60114,0.039 0.49034,0.095 0.92734,-0.4661 0.27217,-0.3494 0.35121,-0.4095 0.41813,-0.3178 0.0229,0.031 0.0987,0.2782 0.16854,0.5484 l 0.1269,0.4913 0.43819,0.1588 c 0.49987,0.181 0.64539,0.2488 0.64539,0.3006 0,0.02 -0.0721,0.087 -0.1601,0.149 -0.0881,0.062 -0.17941,0.1286 -0.20298,0.1483 -0.0235,0.02 -0.16133,0.1117 -0.30608,0.2044 l -0.26321,0.1686 -0.0261,0.5208 c -0.0143,0.2864 -0.0346,0.5504 -0.045,0.5867 -0.0238,0.083 -0.0845,0.083 -0.2032,0 z"
       id="path855-2-65-4-6"
       inkscape:connector-curvature="0" />
    <path
       style="fill:#ffd42a;stroke-width:0.03765619"
       d="m 8.4286567,1110.7596 c -0.002,-0.036 -0.003,-0.2643 -0.002,-0.5068 l 0.002,-0.441 -0.12072,-0.085 c -0.33979,-0.24 -0.63147,-0.4994 -0.62124,-0.5526 0.008,-0.04 0.16018,-0.1009 0.47805,-0.1918 l 0.46678,-0.1334 0.15457,-0.4513 c 0.10223,-0.2985 0.17484,-0.455 0.2144,-0.4623 0.0398,-0.01 0.14652,0.1201 0.31934,0.3815 l 0.2595104,0.3926 0.4806989,0.015 c 0.26438,0.01 0.49847,0.033 0.52018,0.054 0.0275,0.027 -0.0384,0.1469 -0.21787,0.3945 -0.14155,0.1952 -0.27111,0.3772 -0.28791,0.4044 -0.0304,0.049 -0.002,0.1836 0.13275,0.6402 0.13258,0.4476 0.12285,0.4522 -0.4919589,0.2321 l -0.4183904,-0.1497 -0.36525,0.2626 c -0.37078,0.2667 -0.49622,0.3157 -0.50359,0.1968 z"
       id="path830-9-6-3-4"
       inkscape:connector-curvature="0" />
  </g>
</svg>
