<?xml version="1.0" encoding="UTF-8"?>
<svg version="1.1"  width="16" height="16" viewBox="0 0 16 16" xmlns="http://www.w3.org/2000/svg" xmlns:cc="http://creativecommons.org/ns#" xmlns:dc="http://purl.org/dc/elements/1.1/" xmlns:rdf="http://www.w3.org/1999/02/22-rdf-syntax-ns#">
<metadata>
<rdf:RDF>
<cc:Work rdf:about="">
<dc:format>image/svg+xml</dc:format>
<dc:type rdf:resource="http://purl.org/dc/dcmitype/StillImage"/>
<dc:title/>
</cc:Work>
</rdf:RDF>
</metadata>
<g transform="translate(0 -1106.5)">
<g transform="matrix(.28572 0 0 .28572 -35.429 988.12)">
<path d="m141.25 428.07-4.8962 10.697 9.9097 21.675-0.76357 0.18276 9.0312-2.7988c-0.0856-0.14011-13.148-29.405-13.281-29.756z" fill="#5bd16a"/>
<path d="m158.29 443.43c1.4546 3.1743 5.2265 11.712 5.1914 11.74l0.0703-0.0215 3.1562-1.0703c0.61315-0.22772 0.75541-0.65655 0.35743-1.1504z" fill="#ab63be"/>
<path d="m132.41 447.21-3.7949 8.4356 3.8848 8.998 6.8808-2.1328z" fill="#ffc331"/>
<path d="m124.03 465.66c0.11467-0.57283 4.59-10.013 4.59-10.013l3.8848 8.998c-0.0841 0.0443-1.6e-4 4.5e-4 -3.4721 1.0873-1.8484 0.57861 0 0-3.594 1.0922-1.1608 0.29252-1.5571-0.50983-1.4087-1.1642z" fill="#ff575a" stroke-width=".1318"/>
<path d="m132.41 447.22c-5e-3 -0.35687 3.9356-8.4522 3.9356-8.4522l9.9097 21.675-6.8702 2.0848z" fill="#ffe91d" stroke-width=".1318"/>
<path d="m154.53 457.82c-0.0856-0.14011-13.146-29.405-13.28-29.756l0.81871-1.4247c0.16486-0.19926 0.54378-0.19146 0.76635 0.0515l15.456 16.731c1.4537 3.1721 5.2289 11.714 5.1938 11.743l-8.9553 2.655z" fill="#58c2da" stroke-width=".1318"/>
</g>
<path d="m12.61 1116.2c-2e-3 -0.047-2e-3 -0.4065 2e-3 -0.7998l6e-3 -0.7152-0.35416-0.2523c-0.51979-0.3704-0.81687-0.6284-0.81687-0.7094 0-0.1 0.0803-0.1339 0.80334-0.3403 0.353-0.1008 0.65334-0.1963 0.66744-0.2122 0.0141-0.016 0.12321-0.3203 0.24249-0.6764 0.21716-0.6483 0.29364-0.7867 0.41007-0.742 0.0342 0.013 0.24921 0.3015 0.47774 0.6407l0.4155 0.617 0.68615 5e-4c0.37739 3e-4 0.7243 0.011 0.77092 0.023 0.17918 0.048 0.0775 0.2443-0.50991 0.9846l-0.27738 0.3496 0.0633 0.2526c0.0349 0.139 0.12084 0.4361 0.19115 0.6604 0.14557 0.4643 0.15962 0.6122 0.061 0.6435-0.0825 0.026-0.14756 0.01-0.87302-0.2576l-0.58191-0.2123-0.25638 0.1798c-0.7727 0.542-0.94417 0.6504-1.0296 0.6504-0.07 0-0.0943-0.021-0.0979-0.085z" fill="#ffd42a" stroke-width=".037656"/>
<path d="m14.196 1110.8c-0.0513-0.035-0.24312-0.1878-0.4264-0.3388-0.18327-0.151-0.3543-0.2745-0.38005-0.2745-0.0257 0-0.24874 0.06-0.49556 0.1327-0.44567 0.1318-0.61827 0.1421-0.61827 0.037 0-0.03 0.0434-0.1696 0.0965-0.3098 0.13023-0.344 0.24256-0.6777 0.24256-0.7205 0-0.019-0.12715-0.2338-0.28254-0.4767-0.15541-0.2428-0.28255-0.4629-0.28255-0.489 0-0.082 0.0925-0.09 0.62839-0.055 0.60114 0.039 0.49034 0.095 0.92734-0.4661 0.27217-0.3494 0.35121-0.4095 0.41813-0.3178 0.0229 0.031 0.0987 0.2782 0.16854 0.5484l0.1269 0.4913 0.43819 0.1588c0.49987 0.181 0.64539 0.2488 0.64539 0.3006 0 0.02-0.0721 0.087-0.1601 0.149-0.0881 0.062-0.17941 0.1286-0.20298 0.1483-0.0235 0.02-0.16133 0.1117-0.30608 0.2044l-0.26321 0.1686-0.0261 0.5208c-0.0143 0.2864-0.0346 0.5504-0.045 0.5867-0.0238 0.083-0.0845 0.083-0.2032 0z" fill="#ffd42a" stroke-width=".037656"/>
<path d="m8.4287 1110.8c-2e-3 -0.036-3e-3 -0.2643-2e-3 -0.5068l2e-3 -0.441-0.12072-0.085c-0.33979-0.24-0.63147-0.4994-0.62124-0.5526 8e-3 -0.04 0.16018-0.1009 0.47805-0.1918l0.46678-0.1334 0.15457-0.4513c0.10223-0.2985 0.17484-0.455 0.2144-0.4623 0.0398-0.01 0.14652 0.1201 0.31934 0.3815l0.25951 0.3926 0.4807 0.015c0.26438 0.01 0.49847 0.033 0.52018 0.054 0.0275 0.027-0.0384 0.1469-0.21787 0.3945-0.14155 0.1952-0.27111 0.3772-0.28791 0.4044-0.0304 0.049-2e-3 0.1836 0.13275 0.6402 0.13258 0.4476 0.12285 0.4522-0.49196 0.2321l-0.41839-0.1497-0.36525 0.2626c-0.37078 0.2667-0.49622 0.3157-0.50359 0.1968z" fill="#ffd42a" stroke-width=".037656"/>
</g>
</svg>
