<?xml version="1.0" encoding="UTF-8"?>
<svg version="1.1" viewBox="0 0 22 22" xmlns="http://www.w3.org/2000/svg" xmlns:cc="http://creativecommons.org/ns#" xmlns:dc="http://purl.org/dc/elements/1.1/" xmlns:rdf="http://www.w3.org/1999/02/22-rdf-syntax-ns#">
<metadata>
<rdf:RDF>
<cc:Work rdf:about="">
<dc:format>image/svg+xml</dc:format>
<dc:type rdf:resource="http://purl.org/dc/dcmitype/StillImage"/>
<dc:title/>
</cc:Work>
</rdf:RDF>
</metadata>
<g transform="translate(0 -1100.5)">
<path d="m8.5813 1106.5c-0.0512 0-0.0996 0.014-0.12904 0.049l-0.29248 0.4943-1.3132 2.7777s-1.8432 3.7421-1.8413 3.8659l-1.3554 2.9263s-1.5983 3.2753-1.6392 3.4741c-0.053 0.227 0.0885 0.5054 0.5031 0.4039 1.2836-0.3789 0.62345-0.1782 1.2836-0.379 1.24-0.377 1.21-0.3617 1.24-0.377l2.4579-0.7401h1e-3l1.999-0.6049 3.4072-1.0261 3.2237-0.9283 1.1275-0.3711c0.21898-0.079 0.26924-0.2279 0.1271-0.3992l-3.1349-3.2963-5.52-5.8047c-0.0397-0.042-0.0935-0.064-0.14458-0.066z" opacity=".2"/>
<path d="m17.762 1114c-3e-3 -0.057-2e-3 -0.4936 2e-3 -0.9712l8e-3 -0.8685-0.44269-0.3064c-0.64973-0.4498-1.0211-0.7631-1.0211-0.8614 0-0.1212 0.10038-0.1625 1.0042-0.4132 0.44125-0.1224 0.81668-0.2383 0.83429-0.2577 0.0176-0.019 0.15401-0.3889 0.30311-0.8213 0.27144-0.7872 0.36703-0.9552 0.51257-0.901 0.0428 0.016 0.31151 0.366 0.59717 0.7781l0.51937 0.7491 0.85767 7e-4c0.47173 3e-4 0.90536 0.013 0.96363 0.028 0.22397 0.058 0.0969 0.2965-0.63738 1.1955l-0.34672 0.4245 0.0791 0.3068c0.0436 0.1687 0.15105 0.5295 0.23894 0.8018 0.18196 0.5638 0.19951 0.7435 0.0763 0.7814-0.10317 0.032-0.18443 0.01-1.0912-0.3128l-0.72738-0.2577-0.32046 0.2183c-0.96586 0.6582-1.1802 0.7897-1.287 0.7897-0.0875 0-0.11788-0.025-0.12238-0.1028z" opacity=".2" stroke-width=".046392"/>
<path d="m19.744 1107.5c-0.0641-0.043-0.30389-0.228-0.53299-0.4114-0.22909-0.1833-0.44287-0.3333-0.47505-0.3333-0.0322 0-0.31094 0.072-0.61945 0.1611-0.55707 0.1601-0.77283 0.1726-0.77283 0.045 0-0.037 0.0543-0.2059 0.12063-0.3761 0.16278-0.4178 0.30318-0.823 0.30318-0.875 0-0.023-0.15893-0.2838-0.35317-0.5787-0.19425-0.2949-0.35318-0.5621-0.35318-0.5938 0-0.099 0.11566-0.109 0.78548-0.067 0.75141 0.048 0.61291 0.1152 1.1592-0.566 0.34019-0.4243 0.43901-0.4973 0.52264-0.3859 0.0286 0.038 0.12343 0.3378 0.21068 0.6659l0.15862 0.5966 0.54773 0.1927c0.62482 0.2198 0.80672 0.3022 0.80672 0.3651 0 0.024-0.0901 0.1057-0.20013 0.1809-0.11007 0.075-0.22425 0.1561-0.25371 0.1801-0.0294 0.024-0.20165 0.1356-0.3826 0.2482l-0.32901 0.2047-0.0326 0.6324c-0.0179 0.3478-0.0432 0.6684-0.0562 0.7124-0.0297 0.1008-0.10559 0.1014-0.25398 0z" opacity=".2" stroke-width=".046392"/>
<path d="m12.536 1107.5c-3e-3 -0.044-4e-3 -0.3209-2e-3 -0.6154l3e-3 -0.5354-0.1509-0.1035c-0.42473-0.2915-0.78932-0.6065-0.77653-0.671 0.01-0.048 0.20022-0.1227 0.59754-0.233l0.58347-0.162 0.19321-0.548c0.12779-0.3624 0.21854-0.5525 0.268-0.5614 0.0498-0.01 0.18315 0.1458 0.39917 0.4633l0.32437 0.4767 0.60087 0.018c0.33047 0.01 0.62308 0.04 0.65022 0.066 0.0344 0.033-0.048 0.1784-0.27233 0.479-0.17694 0.2372-0.33889 0.4581-0.3599 0.4911-0.038 0.06-3e-3 0.223 0.16595 0.7774 0.16571 0.5435 0.15356 0.5491-0.61494 0.2819l-0.52299-0.1819-0.45655 0.319c-0.46346 0.3237-0.62026 0.3833-0.62949 0.2389z" opacity=".2" stroke-width=".046392"/>
<path d="m17.762 1113c-3e-3 -0.057-2e-3 -0.4936 2e-3 -0.9712l8e-3 -0.8685-0.44269-0.3064c-0.64973-0.4498-1.0211-0.7631-1.0211-0.8614 0-0.1212 0.10038-0.1625 1.0042-0.4132 0.44125-0.1224 0.81668-0.2383 0.83429-0.2577 0.0176-0.019 0.15401-0.3889 0.30311-0.8213 0.27144-0.7872 0.36703-0.9552 0.51257-0.901 0.0428 0.016 0.31151 0.366 0.59717 0.7781l0.51937 0.7491 0.85767 7e-4c0.47173 3e-4 0.90536 0.013 0.96363 0.028 0.22397 0.058 0.0969 0.2965-0.63738 1.1955l-0.34672 0.4245 0.0791 0.3068c0.0436 0.1687 0.15105 0.5295 0.23894 0.8018 0.18196 0.5638 0.19951 0.7435 0.0763 0.7814-0.10317 0.032-0.18443 0.01-1.0912-0.3128l-0.72738-0.2577-0.32046 0.2183c-0.96586 0.6582-1.1802 0.7897-1.287 0.7897-0.0875 0-0.11788-0.025-0.12238-0.1028z" fill="#ffd42a" stroke-width=".046392"/>
<path d="m19.744 1106.5c-0.0641-0.043-0.30389-0.228-0.53299-0.4114-0.22909-0.1833-0.44287-0.3333-0.47505-0.3333-0.0322 0-0.31094 0.072-0.61945 0.1611-0.55707 0.1601-0.77283 0.1726-0.77283 0.045 0-0.037 0.0543-0.2059 0.12063-0.3761 0.16278-0.4178 0.30318-0.823 0.30318-0.875 0-0.023-0.15893-0.2838-0.35317-0.5787-0.19425-0.2949-0.35318-0.5621-0.35318-0.5938 0-0.099 0.11566-0.109 0.78548-0.067 0.75141 0.048 0.61291 0.1152 1.1592-0.566 0.34019-0.4243 0.43901-0.4973 0.52264-0.3859 0.0286 0.038 0.12343 0.3378 0.21068 0.6659l0.15862 0.5966 0.54773 0.1927c0.62482 0.2198 0.80672 0.3022 0.80672 0.3651 0 0.024-0.0901 0.1057-0.20013 0.1809-0.11007 0.075-0.22425 0.1561-0.25371 0.1801-0.0294 0.024-0.20165 0.1356-0.3826 0.2482l-0.32901 0.2047-0.0326 0.6324c-0.0179 0.3478-0.0432 0.6684-0.0562 0.7124-0.0297 0.1008-0.10559 0.1014-0.25398 0z" fill="#ffd42a" stroke-width=".046392"/>
<path d="m12.536 1106.5c-3e-3 -0.044-4e-3 -0.3209-2e-3 -0.6154l3e-3 -0.5354-0.1509-0.1035c-0.42473-0.2915-0.78932-0.6065-0.77653-0.671 0.01-0.048 0.20022-0.1227 0.59754-0.233l0.58347-0.162 0.19321-0.548c0.12779-0.3624 0.21854-0.5525 0.268-0.5614 0.0498-0.01 0.18315 0.1458 0.39917 0.4633l0.32437 0.4767 0.60087 0.018c0.33047 0.01 0.62308 0.04 0.65022 0.066 0.0344 0.033-0.048 0.1784-0.27233 0.479-0.17694 0.2372-0.33889 0.4581-0.3599 0.4911-0.038 0.06-3e-3 0.223 0.16595 0.7774 0.16571 0.5435 0.15356 0.5491-0.61494 0.2819l-0.52299-0.1819-0.45655 0.319c-0.46346 0.3237-0.62026 0.3833-0.62949 0.2389z" fill="#ffd42a" stroke-width=".046392"/>
<g transform="matrix(.35715 0 0 .34695 -42.285 957.53)">
<path d="m141.25 428.07-4.8962 10.697 9.9097 21.675-0.76357 0.18276 9.0312-2.7988c-0.0856-0.14011-13.148-29.405-13.281-29.756z" fill="#5bd16a"/>
<path d="m158.29 443.43c1.4546 3.1743 5.2265 11.712 5.1914 11.74l0.0703-0.0215 3.1562-1.0703c0.61315-0.22772 0.75541-0.65655 0.35743-1.1504z" fill="#ab63be"/>
<path d="m132.41 447.21-3.7949 8.4356 3.8848 8.998 6.8808-2.1328z" fill="#ffc331"/>
<path d="m124.03 465.66c0.11467-0.57283 4.59-10.013 4.59-10.013l3.8848 8.998c-0.0841 0.0443-1.6e-4 4.5e-4 -3.4721 1.0873-1.8484 0.57861 0 0-3.594 1.0922-1.1608 0.29252-1.5571-0.50983-1.4087-1.1642z" fill="#ff575a" stroke-width=".1318"/>
<path d="m132.41 447.22c-5e-3 -0.35687 3.9356-8.4522 3.9356-8.4522l9.9097 21.675-6.8702 2.0848z" fill="#ffe91d" stroke-width=".1318"/>
<path d="m154.53 457.82c-0.0856-0.14011-13.146-29.405-13.28-29.756l0.81871-1.4247c0.16486-0.19926 0.54378-0.19146 0.76635 0.0515l15.456 16.731c1.4537 3.1721 5.2289 11.714 5.1938 11.743l-8.9553 2.655z" fill="#58c2da" stroke-width=".1318"/>
</g>
<path d="m8.5801 1105.5c-0.0505 0-0.0999 0.015-0.12891 0.049l-0.29101 0.4941-1.3145 2.7774s-1.8417 3.7414-1.8398 3.8652l-1.3555 2.9258s-1.5997 3.2758-1.6406 3.4746c-0.0411 0.1762 0.0396 0.3776 0.26953 0.414 0.38737-0.8614 1.3711-2.8886 1.3711-2.8886l1.3555-2.9258c-2e-3 -0.1238 1.8398-3.8652 1.8398-3.8652l1.3145-2.7774 0.29101-0.4941c0.0291-0.034 0.0785-0.051 0.12891-0.049h2e-3c0.0506 0 0.10332 0.025 0.14258 0.066l5.5215 5.8047 2.6699 2.8066 0.33789-0.1113c0.21898-0.079 0.26909-0.2291 0.12695-0.4004l-3.1348-3.2949-5.5215-5.8047c-0.0393-0.042-0.092-0.063-0.14258-0.066z" fill="#fff" opacity=".2"/>
<path d="m18.961 1107.6c-0.14554-0.054-0.24028 0.1132-0.51172 0.9004-0.1491 0.4324-0.28514 0.8029-0.30274 0.8223-0.0176 0.019-0.39273 0.1354-0.83398 0.2578-0.90378 0.2507-1.0039 0.2908-1.0039 0.4121 0 0.081 0.30107 0.3359 0.75196 0.6641 0.10159-0.029 0.11676-0.039 0.25195-0.076 0.44125-0.1224 0.81637-0.2385 0.83398-0.2578 0.0176-0.019 0.15364-0.3899 0.30274-0.8223 0.27144-0.7872 0.36618-0.9546 0.51172-0.9004 0.0428 0.016 0.31199 0.3673 0.59765 0.7793l0.51953 0.748h0.85743c0.23585 2e-4 0.30777 0.01 0.48242 0.014 0.52868-0.6661 0.68056-0.9328 0.48242-0.9843-0.0583-0.015-0.49311-0.029-0.96484-0.029h-0.85743l-0.51953-0.7481c-0.28566-0.412-0.55485-0.7634-0.59765-0.7793zm2.1641 3.92-0.20898 0.2558 0.0781 0.3067c0.031 0.1198 0.10443 0.3572 0.16992 0.5703 0.0499 0.01 0.11554 0.023 0.14649 0.014 0.12321-0.038 0.10579-0.2175-0.0762-0.7813-0.04-0.1239-0.0692-0.2311-0.10938-0.3652zm-3.3613 0.6347c-3e-3 0.4021-5e-3 0.7964-2e-3 0.8457 1.6e-4 0 2e-3 0 2e-3 0.01l8e-3 -0.8457z" fill="#fff" opacity=".2" stroke-width=".046392"/>
<path d="m19.459 1102.5c-0.079-0.01-0.19798 0.1134-0.45312 0.4316-0.54625 0.6813-0.40875 0.614-1.1602 0.5664-0.66982-0.043-0.78515-0.033-0.78515 0.066 0 0.032 0.15926 0.2989 0.35351 0.5938 0.1113 0.1689 0.13827 0.2238 0.20313 0.332 0.0865 0 0.1094 3e-4 0.22851 0.01 0.75141 0.048 0.61391 0.1149 1.1602-0.5664 0.34019-0.4242 0.43981-0.4961 0.52344-0.3848 0.0286 0.038 0.12173 0.3379 0.20898 0.6661l0.16016 0.5957 0.50195 0.1777 0.0156-0.01c0.18095-0.1126 0.35341-0.2241 0.38281-0.248 0.0295-0.024 0.14383-0.1065 0.2539-0.1817 0.11003-0.075 0.19922-0.1554 0.19922-0.1797 0-0.063-0.18182-0.1454-0.80664-0.3652l-0.54687-0.1934-0.16016-0.5957c-0.0873-0.3281-0.18038-0.6279-0.20898-0.666-0.0209-0.028-0.044-0.045-0.0703-0.047zm-1.9121 2.8769c-0.0384 0.1044-0.0381 0.1235-0.082 0.2364-0.0663 0.1702-0.12109 0.3384-0.12109 0.375 0 0.079 0.12385 0.085 0.31836 0.055 0.0291-0.089 0.10547-0.2866 0.10547-0.3047 0-0.015-0.12716-0.2116-0.2207-0.3613z" fill="#fff" opacity=".2" stroke-width=".046392"/>
<path d="m13.252 1103c-0.0495 0.01-0.14174 0.2001-0.26953 0.5625l-0.19336 0.5469-0.58203 0.1621c-0.39732 0.1103-0.58766 0.1841-0.59765 0.2324-0.0128 0.065 0.35066 0.3805 0.77539 0.6719l0.0488 0.033 0.35547-0.1 0.19336-0.5469c0.12779-0.3624 0.22007-0.5536 0.26953-0.5625 0.0498-0.01 0.18242 0.1454 0.39844 0.4629l0.32422 0.4785 0.60156 0.018c0.0208 6e-4 0.0206 0 0.041 0 0.0361-0.053 0.17037-0.2371 0.33593-0.459 0.22434-0.3006 0.30784-0.4451 0.27344-0.4785-0.0271-0.026-0.31992-0.056-0.65039-0.066l-0.60156-0.018-0.32422-0.4785c-0.21602-0.3175-0.34864-0.4719-0.39844-0.4629zm1.5078 2.7695c-0.057 0.078-0.15637 0.2095-0.16602 0.2246-0.0191 0.03-0.0197 0.088 6e-3 0.2071 0.30172 0.077 0.28216-0.03 0.16016-0.4297-2.7e-4 -9e-4 2.6e-4 -1e-3 0 0zm-2.2246 0.5078c4.8e-4 0.036-7.5e-4 0.1415 0 0.1524l2e-3 -0.1504z" fill="#fff" opacity=".2" stroke-width=".046392"/>
</g>
</svg>
