<?xml version="1.0" encoding="UTF-8" standalone="no"?>
<!-- Created with Inkscape (http://www.inkscape.org/) -->

<svg
   xmlns:dc="http://purl.org/dc/elements/1.1/"
   xmlns:cc="http://creativecommons.org/ns#"
   xmlns:rdf="http://www.w3.org/1999/02/22-rdf-syntax-ns#"
   xmlns:svg="http://www.w3.org/2000/svg"
   xmlns="http://www.w3.org/2000/svg"
   xmlns:sodipodi="http://sodipodi.sourceforge.net/DTD/sodipodi-0.dtd"
   xmlns:inkscape="http://www.inkscape.org/namespaces/inkscape"
   width="22"
   height="22"
   viewBox="0 0 22 22.000001"
   version="1.1"
   id="svg8"
   sodipodi:docname="fest.svg"
   inkscape:version="0.92.2 5c3e80d, 2017-08-06">
  <defs
     id="defs2" />
  <sodipodi:namedview
     id="base"
     pagecolor="#ffffff"
     bordercolor="#666666"
     borderopacity="1.0"
     inkscape:pageopacity="0.0"
     inkscape:pageshadow="2"
     inkscape:zoom="5.6"
     inkscape:cx="-45.793492"
     inkscape:cy="11.076142"
     inkscape:document-units="px"
     inkscape:current-layer="layer1"
     showgrid="false"
     inkscape:window-width="1366"
     inkscape:window-height="713"
     inkscape:window-x="0"
     inkscape:window-y="27"
     inkscape:window-maximized="1"
     units="px" />
  <metadata
     id="metadata5">
    <rdf:RDF>
      <cc:Work
         rdf:about="">
        <dc:format>image/svg+xml</dc:format>
        <dc:type
           rdf:resource="http://purl.org/dc/dcmitype/StillImage" />
        <dc:title></dc:title>
      </cc:Work>
    </rdf:RDF>
  </metadata>
  <g
     inkscape:label="Layer 1"
     inkscape:groupmode="layer"
     id="layer1"
     transform="translate(0,-1100.5197)">
    <path
       style="opacity:0.2;fill:#000000;fill-opacity:1;stroke:none;stroke-width:0.04639249px;stroke-linecap:butt;stroke-linejoin:miter;stroke-opacity:1"
       d="m 8.5813462,1106.5074 c -0.0512,0 -0.0996,0.014 -0.12904,0.049 l -0.29248,0.4943 -1.31319,2.7777 c 0,0 -1.84317,3.7421 -1.84131,3.8659 l -1.35541,2.9263 c 0,0 -1.59829,3.2753 -1.63924,3.4741 -0.053,0.227 0.0885,0.5054 0.5031,0.4039 1.28356,-0.3789 0.62345,-0.1782 1.28357,-0.379 1.23997,-0.377 1.20995,-0.3617 1.23999,-0.377 l 2.4579,-0.7401 h 0.001 l 1.99895,-0.6049 3.4072398,-1.0261 3.22366,-0.9283 1.1275,-0.3711 c 0.21898,-0.079 0.26924,-0.2279 0.1271,-0.3992 l -3.13491,-3.2963 -5.5200498,-5.8047 c -0.0397,-0.042 -0.0935,-0.064 -0.14458,-0.066 z"
       id="path847-9-1-7-4"
       inkscape:connector-curvature="0" />
    <path
       style="opacity:0.2;fill:#000000;fill-opacity:1;stroke-width:0.04639249"
       d="m 17.761716,1114.0125 c -0.003,-0.057 -0.002,-0.4936 0.002,-0.9712 l 0.008,-0.8685 -0.44269,-0.3064 c -0.64973,-0.4498 -1.02108,-0.7631 -1.02108,-0.8614 0,-0.1212 0.10038,-0.1625 1.00416,-0.4132 0.44125,-0.1224 0.81668,-0.2383 0.83429,-0.2577 0.0176,-0.019 0.15401,-0.3889 0.30311,-0.8213 0.27144,-0.7872 0.36703,-0.9552 0.51257,-0.901 0.0428,0.016 0.31151,0.366 0.59717,0.7781 l 0.51937,0.7491 0.85767,7e-4 c 0.47173,3e-4 0.90536,0.013 0.96363,0.028 0.22397,0.058 0.0969,0.2965 -0.63738,1.1955 l -0.34672,0.4245 0.0791,0.3068 c 0.0436,0.1687 0.15105,0.5295 0.23894,0.8018 0.18196,0.5638 0.19951,0.7435 0.0763,0.7814 -0.10317,0.032 -0.18443,0.01 -1.09125,-0.3128 l -0.72738,-0.2577 -0.32046,0.2183 c -0.96586,0.6582 -1.1802,0.7897 -1.28698,0.7897 -0.0875,0 -0.11788,-0.025 -0.12238,-0.1028 z"
       id="path857-1-7-8-9"
       inkscape:connector-curvature="0" />
    <path
       style="opacity:0.2;fill:#000000;fill-opacity:1;stroke-width:0.04639249"
       d="m 19.744216,1107.5472 c -0.0641,-0.043 -0.30389,-0.228 -0.53299,-0.4114 -0.22909,-0.1833 -0.44287,-0.3333 -0.47505,-0.3333 -0.0322,0 -0.31094,0.072 -0.61945,0.1611 -0.55707,0.1601 -0.77283,0.1726 -0.77283,0.045 0,-0.037 0.0543,-0.2059 0.12063,-0.3761 0.16278,-0.4178 0.30318,-0.823 0.30318,-0.875 0,-0.023 -0.15893,-0.2838 -0.35317,-0.5787 -0.19425,-0.2949 -0.35318,-0.5621 -0.35318,-0.5938 0,-0.099 0.11566,-0.109 0.78548,-0.067 0.75141,0.048 0.61291,0.1152 1.15916,-0.566 0.34019,-0.4243 0.43901,-0.4973 0.52264,-0.3859 0.0286,0.038 0.12343,0.3378 0.21068,0.6659 l 0.15862,0.5966 0.54773,0.1927 c 0.62482,0.2198 0.80672,0.3022 0.80672,0.3651 0,0.024 -0.0901,0.1057 -0.20013,0.1809 -0.11007,0.075 -0.22425,0.1561 -0.25371,0.1801 -0.0294,0.024 -0.20165,0.1356 -0.3826,0.2482 l -0.32901,0.2047 -0.0326,0.6324 c -0.0179,0.3478 -0.0432,0.6684 -0.0562,0.7124 -0.0297,0.1008 -0.10559,0.1014 -0.25398,0 z"
       id="path855-2-65-4-2"
       inkscape:connector-curvature="0" />
    <path
       style="opacity:0.2;fill:#000000;fill-opacity:1;stroke-width:0.04639249"
       d="m 12.535576,1107.4538 c -0.003,-0.044 -0.004,-0.3209 -0.002,-0.6154 l 0.003,-0.5354 -0.1509,-0.1035 c -0.42473,-0.2915 -0.78932,-0.6065 -0.77653,-0.671 0.01,-0.048 0.20022,-0.1227 0.59754,-0.233 l 0.58347,-0.162 0.19321,-0.548 c 0.12779,-0.3624 0.21854,-0.5525 0.268,-0.5614 0.0498,-0.01 0.18315,0.1458 0.39917,0.4633 l 0.32437,0.4767 0.60087,0.018 c 0.33047,0.01 0.62308,0.04 0.65022,0.066 0.0344,0.033 -0.048,0.1784 -0.27233,0.479 -0.17694,0.2372 -0.33889,0.4581 -0.3599,0.4911 -0.038,0.06 -0.003,0.223 0.16595,0.7774 0.16571,0.5435 0.15356,0.5491 -0.61494,0.2819 l -0.52299,-0.1819 -0.45655,0.319 c -0.46346,0.3237 -0.62026,0.3833 -0.62949,0.2389 z"
       id="path830-9-6-3-0"
       inkscape:connector-curvature="0" />
    <path
       style="fill:#ffd42a;stroke-width:0.04639249"
       d="m 17.761686,1113.0125 c -0.003,-0.057 -0.002,-0.4936 0.002,-0.9712 l 0.008,-0.8685 -0.44269,-0.3064 c -0.64973,-0.4498 -1.02108,-0.7631 -1.02108,-0.8614 0,-0.1212 0.10038,-0.1625 1.00416,-0.4132 0.44125,-0.1224 0.81668,-0.2383 0.83429,-0.2577 0.0176,-0.019 0.15401,-0.3889 0.30311,-0.8213 0.27144,-0.7872 0.36703,-0.9552 0.51257,-0.901 0.0428,0.016 0.31151,0.366 0.59717,0.7781 l 0.51937,0.7491 0.85767,7e-4 c 0.47173,3e-4 0.90536,0.013 0.96363,0.028 0.22397,0.058 0.0969,0.2965 -0.63738,1.1955 l -0.34672,0.4245 0.0791,0.3068 c 0.0436,0.1687 0.15105,0.5295 0.23894,0.8018 0.18196,0.5638 0.19951,0.7435 0.0763,0.7814 -0.10317,0.032 -0.18443,0.01 -1.09125,-0.3128 l -0.72738,-0.2577 -0.32046,0.2183 c -0.96586,0.6582 -1.1802,0.7897 -1.28698,0.7897 -0.0875,0 -0.11788,-0.025 -0.12238,-0.1028 z"
       id="path857-1-7-8"
       inkscape:connector-curvature="0" />
    <path
       style="fill:#ffd42a;stroke-width:0.04639249"
       d="m 19.744186,1106.5472 c -0.0641,-0.043 -0.30389,-0.228 -0.53299,-0.4114 -0.22909,-0.1833 -0.44287,-0.3333 -0.47505,-0.3333 -0.0322,0 -0.31094,0.072 -0.61945,0.1611 -0.55707,0.1601 -0.77283,0.1726 -0.77283,0.045 0,-0.037 0.0543,-0.2059 0.12063,-0.3761 0.16278,-0.4178 0.30318,-0.823 0.30318,-0.875 0,-0.023 -0.15893,-0.2838 -0.35317,-0.5787 -0.19425,-0.2949 -0.35318,-0.5621 -0.35318,-0.5938 0,-0.099 0.11566,-0.109 0.78548,-0.067 0.75141,0.048 0.61291,0.1152 1.15916,-0.566 0.34019,-0.4243 0.43901,-0.4973 0.52264,-0.3859 0.0286,0.038 0.12343,0.3378 0.21068,0.6659 l 0.15862,0.5966 0.54773,0.1927 c 0.62482,0.2198 0.80672,0.3022 0.80672,0.3651 0,0.024 -0.0901,0.1057 -0.20013,0.1809 -0.11007,0.075 -0.22425,0.1561 -0.25371,0.1801 -0.0294,0.024 -0.20165,0.1356 -0.3826,0.2482 l -0.32901,0.2047 -0.0326,0.6324 c -0.0179,0.3478 -0.0432,0.6684 -0.0562,0.7124 -0.0297,0.1008 -0.10559,0.1014 -0.25398,0 z"
       id="path855-2-65-4"
       inkscape:connector-curvature="0" />
    <path
       style="fill:#ffd42a;stroke-width:0.04639249"
       d="m 12.535546,1106.4538 c -0.003,-0.044 -0.004,-0.3209 -0.002,-0.6154 l 0.003,-0.5354 -0.1509,-0.1035 c -0.42473,-0.2915 -0.78932,-0.6065 -0.77653,-0.671 0.01,-0.048 0.20022,-0.1227 0.59754,-0.233 l 0.58347,-0.162 0.19321,-0.548 c 0.12779,-0.3624 0.21854,-0.5525 0.268,-0.5614 0.0498,-0.01 0.18315,0.1458 0.39917,0.4633 l 0.32437,0.4767 0.60087,0.018 c 0.33047,0.01 0.62308,0.04 0.65022,0.066 0.0344,0.033 -0.048,0.1784 -0.27233,0.479 -0.17694,0.2372 -0.33889,0.4581 -0.3599,0.4911 -0.038,0.06 -0.003,0.223 0.16595,0.7774 0.16571,0.5435 0.15356,0.5491 -0.61494,0.2819 l -0.52299,-0.1819 -0.45655,0.319 c -0.46346,0.3237 -0.62026,0.3833 -0.62949,0.2389 z"
       id="path830-9-6-3"
       inkscape:connector-curvature="0" />
    <g
       transform="matrix(0.35714525,0,0,0.34695171,-42.285439,957.53272)"
       id="g1574-9-7-6">
      <path
         sodipodi:nodetypes="cccccc"
         inkscape:connector-curvature="0"
         id="path1551-4-1-7"
         d="m 141.24672,428.06618 -4.89616,10.69713 9.90973,21.67479 -0.76357,0.18276 9.03125,-2.79883 c -0.0856,-0.14011 -13.14779,-29.40512 -13.28125,-29.75585 z"
         style="fill:#5bd16a;fill-opacity:1;stroke:none;stroke-width:0.1317956px;stroke-linecap:butt;stroke-linejoin:miter;stroke-opacity:1" />
      <path
         inkscape:connector-curvature="0"
         id="path1547-9-1-3"
         d="m 158.29164,443.4275 c 1.45463,3.17427 5.22652,11.71185 5.19141,11.74024 l 0.0703,-0.0215 3.15625,-1.07031 c 0.61315,-0.22772 0.75541,-0.65655 0.35743,-1.15039 z"
         style="fill:#ab63be;fill-opacity:1;stroke:none;stroke-width:0.1317956px;stroke-linecap:butt;stroke-linejoin:miter;stroke-opacity:1" />
      <path
         inkscape:connector-curvature="0"
         id="path1545-0-5-6"
         d="m 132.41469,447.21461 -3.79492,8.43555 3.88477,8.99805 6.88085,-2.13282 z"
         style="fill:#ffc331;fill-opacity:1;stroke:none;stroke-width:0.1317956px;stroke-linecap:butt;stroke-linejoin:miter;stroke-opacity:1" />
      <path
         sodipodi:nodetypes="cccccc"
         inkscape:connector-curvature="0"
         id="path863-9-9-5"
         d="m 124.02981,465.66353 c 0.11467,-0.57283 4.58996,-10.01337 4.58996,-10.01337 l 3.88477,8.99805 c -0.0841,0.0443 -1.6e-4,4.5e-4 -3.47207,1.08728 -1.84837,0.57861 0,0 -3.59399,1.09224 -1.16075,0.29252 -1.55714,-0.50983 -1.40867,-1.1642 z"
         style="fill:#ff575a;fill-opacity:1;stroke-width:0.13179561" />
      <path
         sodipodi:nodetypes="ccccc"
         inkscape:connector-curvature="0"
         id="path861-1-7-6"
         d="m 132.41495,447.21553 c -0.005,-0.35687 3.93561,-8.45222 3.93561,-8.45222 l 9.90973,21.67479 -6.87022,2.08479 z"
         style="fill:#ffe91d;fill-opacity:1;stroke-width:0.13179561" />
      <path
         inkscape:connector-curvature="0"
         id="path859-7-7-3"
         d="m 154.52736,457.82193 c -0.0856,-0.14011 -13.14627,-29.40485 -13.27973,-29.75558 l 0.81871,-1.42472 c 0.16486,-0.19926 0.54378,-0.19146 0.76635,0.0515 l 15.45615,16.73117 c 1.45373,3.17213 5.22892,11.7143 5.1938,11.7427 l -8.95528,2.65503 z"
         style="fill:#58c2da;fill-opacity:1;stroke-width:0.13179561" />
    </g>
    <path
       style="opacity:0.2;fill:#ffffff;fill-opacity:1;stroke:none;stroke-width:0.04639249px;stroke-linecap:butt;stroke-linejoin:miter;stroke-opacity:1"
       d="m 8.5800762,1105.508 c -0.0505,0 -0.0999,0.015 -0.12891,0.049 l -0.29101,0.4941 -1.31446,2.7774 c 0,0 -1.8417,3.7414 -1.83984,3.8652 l -1.35547,2.9258 c 0,0 -1.59967,3.2758 -1.64062,3.4746 -0.0411,0.1762 0.0396,0.3776 0.26953,0.414 0.38737,-0.8614 1.37109,-2.8886 1.37109,-2.8886 l 1.35547,-2.9258 c -0.002,-0.1238 1.83984,-3.8652 1.83984,-3.8652 l 1.31446,-2.7774 0.29101,-0.4941 c 0.0291,-0.034 0.0785,-0.051 0.12891,-0.049 h 0.002 c 0.0506,0 0.10332,0.025 0.14258,0.066 l 5.5214798,5.8047 2.66993,2.8066 0.33789,-0.1113 c 0.21898,-0.079 0.26909,-0.2291 0.12695,-0.4004 l -3.13477,-3.2949 -5.5214798,-5.8047 c -0.0393,-0.042 -0.092,-0.063 -0.14258,-0.066 z"
       id="path847-9-1-7-9"
       inkscape:connector-curvature="0" />
    <path
       style="opacity:0.2;fill:#ffffff;fill-opacity:1;stroke-width:0.04639249"
       d="m 18.961406,1107.6116 c -0.14554,-0.054 -0.24028,0.1132 -0.51172,0.9004 -0.1491,0.4324 -0.28514,0.8029 -0.30274,0.8223 -0.0176,0.019 -0.39273,0.1354 -0.83398,0.2578 -0.90378,0.2507 -1.00391,0.2908 -1.00391,0.4121 0,0.081 0.30107,0.3359 0.75196,0.6641 0.10159,-0.029 0.11676,-0.039 0.25195,-0.076 0.44125,-0.1224 0.81637,-0.2385 0.83398,-0.2578 0.0176,-0.019 0.15364,-0.3899 0.30274,-0.8223 0.27144,-0.7872 0.36618,-0.9546 0.51172,-0.9004 0.0428,0.016 0.31199,0.3673 0.59765,0.7793 l 0.51953,0.748 h 0.85743 c 0.23585,2e-4 0.30777,0.01 0.48242,0.014 0.52868,-0.6661 0.68056,-0.9328 0.48242,-0.9843 -0.0583,-0.015 -0.49311,-0.029 -0.96484,-0.029 h -0.85743 l -0.51953,-0.7481 c -0.28566,-0.412 -0.55485,-0.7634 -0.59765,-0.7793 z m 2.16406,3.92 -0.20898,0.2558 0.0781,0.3067 c 0.031,0.1198 0.10443,0.3572 0.16992,0.5703 0.0499,0.01 0.11554,0.023 0.14649,0.014 0.12321,-0.038 0.10579,-0.2175 -0.0762,-0.7813 -0.04,-0.1239 -0.0692,-0.2311 -0.10938,-0.3652 z m -3.36133,0.6347 c -0.003,0.4021 -0.005,0.7964 -0.002,0.8457 1.6e-4,0 0.002,0 0.002,0.01 l 0.008,-0.8457 z"
       id="path857-1-7-8-5"
       inkscape:connector-curvature="0" />
    <path
       style="opacity:0.2;fill:#ffffff;fill-opacity:1;stroke-width:0.04639249"
       d="m 19.458976,1102.5197 c -0.079,-0.01 -0.19798,0.1134 -0.45312,0.4316 -0.54625,0.6813 -0.40875,0.614 -1.16016,0.5664 -0.66982,-0.043 -0.78515,-0.033 -0.78515,0.066 0,0.032 0.15926,0.2989 0.35351,0.5938 0.1113,0.1689 0.13827,0.2238 0.20313,0.332 0.0865,0 0.1094,3e-4 0.22851,0.01 0.75141,0.048 0.61391,0.1149 1.16016,-0.5664 0.34019,-0.4242 0.43981,-0.4961 0.52344,-0.3848 0.0286,0.038 0.12173,0.3379 0.20898,0.6661 l 0.16016,0.5957 0.50195,0.1777 0.0156,-0.01 c 0.18095,-0.1126 0.35341,-0.2241 0.38281,-0.248 0.0295,-0.024 0.14383,-0.1065 0.2539,-0.1817 0.11003,-0.075 0.19922,-0.1554 0.19922,-0.1797 0,-0.063 -0.18182,-0.1454 -0.80664,-0.3652 l -0.54687,-0.1934 -0.16016,-0.5957 c -0.0873,-0.3281 -0.18038,-0.6279 -0.20898,-0.666 -0.0209,-0.028 -0.044,-0.045 -0.0703,-0.047 z m -1.9121,2.8769 c -0.0384,0.1044 -0.0381,0.1235 -0.082,0.2364 -0.0663,0.1702 -0.12109,0.3384 -0.12109,0.375 0,0.079 0.12385,0.085 0.31836,0.055 0.0291,-0.089 0.10547,-0.2866 0.10547,-0.3047 0,-0.015 -0.12716,-0.2116 -0.2207,-0.3613 z"
       id="path855-2-65-4-0"
       inkscape:connector-curvature="0" />
    <path
       style="opacity:0.2;fill:#ffffff;fill-opacity:1;stroke-width:0.04639249"
       d="m 13.251946,1103.0236 c -0.0495,0.01 -0.14174,0.2001 -0.26953,0.5625 l -0.19336,0.5469 -0.58203,0.1621 c -0.39732,0.1103 -0.58766,0.1841 -0.59765,0.2324 -0.0128,0.065 0.35066,0.3805 0.77539,0.6719 l 0.0488,0.033 0.35547,-0.1 0.19336,-0.5469 c 0.12779,-0.3624 0.22007,-0.5536 0.26953,-0.5625 0.0498,-0.01 0.18242,0.1454 0.39844,0.4629 l 0.32422,0.4785 0.60156,0.018 c 0.0208,6e-4 0.0206,0 0.041,0 0.0361,-0.053 0.17037,-0.2371 0.33593,-0.459 0.22434,-0.3006 0.30784,-0.4451 0.27344,-0.4785 -0.0271,-0.026 -0.31992,-0.056 -0.65039,-0.066 l -0.60156,-0.018 -0.32422,-0.4785 c -0.21602,-0.3175 -0.34864,-0.4719 -0.39844,-0.4629 z m 1.50782,2.7695 c -0.057,0.078 -0.15637,0.2095 -0.16602,0.2246 -0.0191,0.03 -0.0197,0.088 0.006,0.2071 0.30172,0.077 0.28216,-0.03 0.16016,-0.4297 -2.7e-4,-9e-4 2.6e-4,-10e-4 0,0 z m -2.22461,0.5078 c 4.8e-4,0.036 -7.5e-4,0.1415 0,0.1524 l 0.002,-0.1504 z"
       id="path830-9-6-3-48"
       inkscape:connector-curvature="0" />
  </g>
</svg>
