<?xml version="1.0" encoding="UTF-8" standalone="no"?>
<!-- Created with Inkscape (http://www.inkscape.org/) -->

<svg
   xmlns:dc="http://purl.org/dc/elements/1.1/"
   xmlns:cc="http://creativecommons.org/ns#"
   xmlns:rdf="http://www.w3.org/1999/02/22-rdf-syntax-ns#"
   xmlns:svg="http://www.w3.org/2000/svg"
   xmlns="http://www.w3.org/2000/svg"
   xmlns:sodipodi="http://sodipodi.sourceforge.net/DTD/sodipodi-0.dtd"
   xmlns:inkscape="http://www.inkscape.org/namespaces/inkscape"
   width="32"
   height="32"
   viewBox="0 0 32 32.000001"
   version="1.1"
   id="svg8"
   sodipodi:docname="fest.svg"
   inkscape:version="0.92.2 5c3e80d, 2017-08-06">
  <defs
     id="defs2" />
  <sodipodi:namedview
     id="base"
     pagecolor="#ffffff"
     bordercolor="#666666"
     borderopacity="1.0"
     inkscape:pageopacity="0.0"
     inkscape:pageshadow="2"
     inkscape:zoom="5.6"
     inkscape:cx="-33.114921"
     inkscape:cy="10.361856"
     inkscape:document-units="px"
     inkscape:current-layer="layer1"
     showgrid="false"
     inkscape:window-width="1366"
     inkscape:window-height="713"
     inkscape:window-x="0"
     inkscape:window-y="27"
     inkscape:window-maximized="1"
     units="px" />
  <metadata
     id="metadata5">
    <rdf:RDF>
      <cc:Work
         rdf:about="">
        <dc:format>image/svg+xml</dc:format>
        <dc:type
           rdf:resource="http://purl.org/dc/dcmitype/StillImage" />
        <dc:title />
      </cc:Work>
    </rdf:RDF>
  </metadata>
  <g
     inkscape:label="Layer 1"
     inkscape:groupmode="layer"
     id="layer1"
     transform="translate(0,-1090.5197)">
    <path
       style="opacity:0.2;fill:#000000;fill-opacity:1;stroke:none;stroke-width:0.0652215px;stroke-linecap:butt;stroke-linejoin:miter;stroke-opacity:1"
       d="m 12.213768,1099.7377 c -0.0716,0 -0.13944,0.02 -0.18065,0.069 l -0.40947,0.6978 -1.83845,3.9215 c 0,0 -2.58042,5.283 -2.57781,5.4578 l -1.89756,4.1312 c 0,0 -2.23759,4.6239 -2.29492,4.9045 -0.0742,0.3205 0.12396,0.7135 0.70433,0.5702 1.79697,-0.5349 0.87282,-0.2515 1.79699,-0.5349 1.73594,-0.5324 1.69392,-0.5107 1.73597,-0.5324 l 3.44103,-1.0448 h 0.002 l 2.79851,-0.854 4.7701,-1.4485 4.51309,-1.3105 1.57849,-0.524 c 0.30657,-0.1116 0.37694,-0.3217 0.17794,-0.5636 l -4.38884,-4.6535 -7.72801,-8.1949 c -0.0556,-0.06 -0.13083,-0.09 -0.20241,-0.094 z"
       id="path847-9-1-9"
       inkscape:connector-curvature="0" />
    <path
       style="opacity:0.2;fill:#000000;fill-opacity:1;stroke-width:0.0652215"
       d="m 25.066198,1110.3331 c -0.004,-0.08 -0.003,-0.6969 0.003,-1.3712 l 0.0111,-1.226 -0.61977,-0.4326 c -0.90961,-0.635 -1.4295,-1.0772 -1.4295,-1.216 0,-0.1712 0.14053,-0.2295 1.40582,-0.5834 0.61774,-0.1728 1.14334,-0.3365 1.168,-0.3638 0.0246,-0.027 0.21561,-0.5491 0.42435,-1.1596 0.38,-1.1113 0.51383,-1.3485 0.71759,-1.2719 0.0599,0.022 0.43611,0.5168 0.83603,1.0984 l 0.72711,1.0576 1.20073,10e-4 c 0.66041,5e-4 1.26749,0.018 1.34907,0.04 0.31355,0.082 0.1357,0.4186 -0.89232,1.6878 l -0.48541,0.5992 0.11081,0.4332 c 0.061,0.2382 0.21147,0.7476 0.33451,1.132 0.25475,0.7959 0.27931,1.0496 0.10682,1.1031 -0.14443,0.045 -0.2582,0.012 -1.52774,-0.4416 l -1.01832,-0.3639 -0.44864,0.3083 c -1.3522,0.9292 -1.65227,1.1149 -1.80176,1.1149 -0.12256,0 -0.16503,-0.036 -0.17133,-0.1452 z"
       id="path857-1-7-3"
       inkscape:connector-curvature="0" />
    <path
       style="opacity:0.2;fill:#000000;fill-opacity:1;stroke-width:0.0652215"
       d="m 27.841668,1101.2056 c -0.0897,-0.061 -0.42543,-0.3219 -0.74617,-0.5807 -0.32073,-0.2588 -0.62002,-0.4706 -0.66507,-0.4706 -0.0451,0 -0.43531,0.1024 -0.86722,0.2275 -0.77989,0.2259 -1.08196,0.2435 -1.08196,0.063 0,-0.052 0.076,-0.2908 0.16888,-0.5311 0.2279,-0.5898 0.42445,-1.1618 0.42445,-1.2352 0,-0.033 -0.2225,-0.4008 -0.49443,-0.8171 -0.27195,-0.4163 -0.49445,-0.7935 -0.49445,-0.8383 0,-0.14 0.16192,-0.1539 1.09966,-0.094 1.05197,0.067 0.85807,0.1627 1.62281,-0.799 0.47627,-0.599 0.61461,-0.702 0.73169,-0.5448 0.0401,0.054 0.17281,0.4769 0.29495,0.9401 l 0.22207,0.8423 0.76682,0.272 c 0.87474,0.3104 1.1294,0.4266 1.1294,0.5155 0,0.034 -0.12608,0.1492 -0.28018,0.2553 -0.1541,0.1061 -0.31395,0.2205 -0.3552,0.2543 -0.0412,0.034 -0.2823,0.1915 -0.53563,0.3504 l -0.46061,0.289 -0.0456,0.8928 c -0.0251,0.491 -0.0605,0.9436 -0.0786,1.0057 -0.0416,0.1424 -0.14783,0.1432 -0.35558,0 z"
       id="path855-2-65-7"
       inkscape:connector-curvature="0" />
    <path
       style="opacity:0.2;fill:#000000;fill-opacity:1;stroke-width:0.0652215"
       d="m 17.749648,1101.0738 c -0.004,-0.062 -0.005,-0.4531 -0.003,-0.8688 l 0.004,-0.7559 -0.21126,-0.1461 c -0.59462,-0.4115 -1.10504,-0.8562 -1.08713,-0.9473 0.0134,-0.068 0.28031,-0.1732 0.83655,-0.3289 l 0.81685,-0.2288 0.27049,-0.7736 c 0.1789,-0.5116 0.30595,-0.78 0.3752,-0.7926 0.0697,-0.013 0.25641,0.2059 0.55883,0.6541 l 0.45412,0.6731 0.84121,0.026 c 0.46266,0.014 0.8723,0.056 0.9103,0.093 0.0482,0.047 -0.0672,0.2518 -0.38126,0.6762 -0.24772,0.3348 -0.47444,0.6467 -0.50385,0.6933 -0.0532,0.084 -0.004,0.3147 0.23232,1.0975 0.23199,0.7672 0.21498,0.7751 -0.86091,0.3979 l -0.73217,-0.2567 -0.63917,0.4503 c -0.64884,0.457 -0.86836,0.5411 -0.88128,0.3373 z"
       id="path830-9-6-4"
       inkscape:connector-curvature="0" />
    <path
       style="fill:#ffd42a;stroke-width:0.0652215"
       d="m 25.066198,1109.3331 c -0.004,-0.08 -0.003,-0.6969 0.003,-1.3712 l 0.0111,-1.226 -0.61977,-0.4326 c -0.90961,-0.635 -1.4295,-1.0772 -1.4295,-1.216 0,-0.1712 0.14053,-0.2295 1.40582,-0.5834 0.61774,-0.1728 1.14334,-0.3365 1.168,-0.3638 0.0246,-0.027 0.21561,-0.5491 0.42435,-1.1596 0.38,-1.1113 0.51383,-1.3485 0.71759,-1.2719 0.0599,0.022 0.43611,0.5168 0.83603,1.0984 l 0.72711,1.0576 1.20073,10e-4 c 0.66041,5e-4 1.26749,0.018 1.34907,0.04 0.31355,0.082 0.1357,0.4186 -0.89232,1.6878 l -0.48541,0.5992 0.11081,0.4332 c 0.061,0.2382 0.21147,0.7476 0.33451,1.132 0.25475,0.7959 0.27931,1.0496 0.10682,1.1031 -0.14443,0.045 -0.2582,0.012 -1.52774,-0.4416 l -1.01832,-0.3639 -0.44864,0.3083 c -1.3522,0.9292 -1.65227,1.1149 -1.80176,1.1149 -0.12256,0 -0.16503,-0.036 -0.17133,-0.1452 z"
       id="path857-1-7"
       inkscape:connector-curvature="0" />
    <path
       style="fill:#ffd42a;stroke-width:0.0652215"
       d="m 27.841668,1100.2056 c -0.0897,-0.061 -0.42543,-0.3219 -0.74617,-0.5807 -0.32073,-0.2588 -0.62002,-0.4706 -0.66507,-0.4706 -0.0451,0 -0.43531,0.1024 -0.86722,0.2275 -0.77989,0.2259 -1.08196,0.2435 -1.08196,0.063 0,-0.052 0.076,-0.2908 0.16888,-0.5311 0.2279,-0.5898 0.42445,-1.1618 0.42445,-1.2352 0,-0.033 -0.2225,-0.4008 -0.49443,-0.8171 -0.27195,-0.4163 -0.49445,-0.7935 -0.49445,-0.8383 0,-0.14 0.16192,-0.1539 1.09966,-0.094 1.05197,0.067 0.85807,0.1627 1.62281,-0.799 0.47627,-0.599 0.61461,-0.702 0.73169,-0.5448 0.0401,0.054 0.17281,0.4769 0.29495,0.9401 l 0.22207,0.8423 0.76682,0.272 c 0.87474,0.3104 1.1294,0.4266 1.1294,0.5155 0,0.034 -0.12608,0.1492 -0.28018,0.2553 -0.1541,0.1061 -0.31395,0.2205 -0.3552,0.2543 -0.0412,0.034 -0.2823,0.1915 -0.53563,0.3504 l -0.46061,0.289 -0.0456,0.8928 c -0.0251,0.491 -0.0605,0.9436 -0.0786,1.0057 -0.0416,0.1424 -0.14783,0.1432 -0.35558,0 z"
       id="path855-2-65"
       inkscape:connector-curvature="0" />
    <path
       style="fill:#ffd42a;stroke-width:0.0652215"
       d="m 17.749648,1100.0738 c -0.004,-0.062 -0.005,-0.4531 -0.003,-0.8688 l 0.004,-0.7559 -0.21126,-0.1461 c -0.59462,-0.4115 -1.10504,-0.8562 -1.08713,-0.9473 0.0134,-0.068 0.28031,-0.1732 0.83655,-0.3289 l 0.81685,-0.2288 0.27049,-0.7736 c 0.1789,-0.5116 0.30595,-0.78 0.3752,-0.7926 0.0697,-0.013 0.25641,0.2059 0.55883,0.6541 l 0.45412,0.6731 0.84121,0.026 c 0.46266,0.014 0.8723,0.056 0.9103,0.093 0.0482,0.047 -0.0672,0.2518 -0.38126,0.6762 -0.24772,0.3348 -0.47444,0.6467 -0.50385,0.6933 -0.0532,0.084 -0.004,0.3147 0.23232,1.0975 0.23199,0.7672 0.21498,0.7751 -0.86091,0.3979 l -0.73217,-0.2567 -0.63917,0.4503 c -0.64884,0.457 -0.86836,0.5411 -0.88128,0.3373 z"
       id="path830-9-6"
       inkscape:connector-curvature="0" />
    <g
       transform="matrix(0.49999411,0,0,0.48978796,-58.99999,889.84242)"
       id="g1574-9-7">
      <path
         sodipodi:nodetypes="cccccc"
         inkscape:connector-curvature="0"
         id="path1551-4-1"
         d="m 141.24672,428.06618 -4.89616,10.69713 9.90973,21.67479 -0.76357,0.18276 9.03125,-2.79883 c -0.0856,-0.14011 -13.14779,-29.40512 -13.28125,-29.75585 z"
         style="fill:#5bd16a;fill-opacity:1;stroke:none;stroke-width:0.1317956px;stroke-linecap:butt;stroke-linejoin:miter;stroke-opacity:1" />
      <path
         inkscape:connector-curvature="0"
         id="path1547-9-1"
         d="m 158.29164,443.4275 c 1.45463,3.17427 5.22652,11.71185 5.19141,11.74024 l 0.0703,-0.0215 3.15625,-1.07031 c 0.61315,-0.22772 0.75541,-0.65655 0.35743,-1.15039 z"
         style="fill:#ab63be;fill-opacity:1;stroke:none;stroke-width:0.1317956px;stroke-linecap:butt;stroke-linejoin:miter;stroke-opacity:1" />
      <path
         inkscape:connector-curvature="0"
         id="path1545-0-5"
         d="m 132.41469,447.21461 -3.79492,8.43555 3.88477,8.99805 6.88085,-2.13282 z"
         style="fill:#ffc331;fill-opacity:1;stroke:none;stroke-width:0.1317956px;stroke-linecap:butt;stroke-linejoin:miter;stroke-opacity:1" />
      <path
         sodipodi:nodetypes="cccccc"
         inkscape:connector-curvature="0"
         id="path863-9-9"
         d="m 124.02981,465.66353 c 0.11467,-0.57283 4.58996,-10.01337 4.58996,-10.01337 l 3.88477,8.99805 c -0.0841,0.0443 -1.6e-4,4.5e-4 -3.47207,1.08728 -1.84837,0.57861 0,0 -3.59399,1.09224 -1.16075,0.29252 -1.55714,-0.50983 -1.40867,-1.1642 z"
         style="fill:#ff575a;fill-opacity:1;stroke-width:0.13179561" />
      <path
         sodipodi:nodetypes="ccccc"
         inkscape:connector-curvature="0"
         id="path861-1-7"
         d="m 132.41495,447.21553 c -0.005,-0.35687 3.93561,-8.45222 3.93561,-8.45222 l 9.90973,21.67479 -6.87022,2.08479 z"
         style="fill:#ffe91d;fill-opacity:1;stroke-width:0.13179561" />
      <path
         inkscape:connector-curvature="0"
         id="path859-7-7"
         d="m 154.52736,457.82193 c -0.0856,-0.14011 -13.14627,-29.40485 -13.27973,-29.75558 l 0.81871,-1.42472 c 0.16486,-0.19926 0.54378,-0.19146 0.76635,0.0515 l 15.45615,16.73117 c 1.45373,3.17213 5.22892,11.7143 5.1938,11.7427 l -8.95528,2.65503 z"
         style="fill:#58c2da;fill-opacity:1;stroke-width:0.13179561" />
    </g>
    <path
       style="opacity:0.2;fill:#ffffff;fill-opacity:1;stroke:none;stroke-width:0.0652215px;stroke-linecap:butt;stroke-linejoin:miter;stroke-opacity:1"
       d="m 12.214838,1098.7365 h -0.002 c -0.0716,0 -0.13848,0.02 -0.17969,0.068 l -0.41015,0.6973 -1.83789,3.9218 c 0,0 -2.58074,5.2823 -2.57813,5.4571 l -1.89648,4.1308 c 0,0 -2.2376,4.6238 -2.29493,4.9043 -0.0463,0.1999 0.0284,0.4149 0.22071,0.5235 0.38768,-0.9218 2.07617,-4.4239 2.07617,-4.4239 l 1.89648,-4.1308 c -0.003,-0.1748 2.57813,-5.459 2.57813,-5.459 l 1.83789,-3.9199 0.41016,-0.6993 c 0.0412,-0.049 0.10808,-0.072 0.17968,-0.068 h 0.002 c 0.0716,0 0.14557,0.034 0.20117,0.094 l 7.72851,8.1953 4.0293,4.2715 0.17969,-0.059 c 0.30657,-0.1115 0.37673,-0.3206 0.17773,-0.5625 l -4.38867,-4.6543 -7.72851,-8.1953 c -0.0556,-0.06 -0.1296,-0.09 -0.20118,-0.094 z"
       id="path847-9-1-5"
       inkscape:connector-curvature="0" />
    <path
       style="opacity:0.2;fill:#ffffff;fill-opacity:1;stroke-width:0.0652215"
       d="m 26.746088,1101.7091 c -0.20376,-0.077 -0.33679,0.1602 -0.71679,1.2715 -0.20874,0.6105 -0.39923,1.1328 -0.42383,1.1602 -0.0247,0.027 -0.55023,0.1905 -1.16797,0.3633 -1.26529,0.3539 -1.40625,0.4128 -1.40625,0.5839 0,0.089 0.27762,0.3358 0.66992,0.6446 0.2059,-0.065 0.34169,-0.1157 0.73828,-0.2266 0.61774,-0.1728 1.14331,-0.336 1.16797,-0.3633 0.0246,-0.027 0.21509,-0.5497 0.42383,-1.1601 0.38,-1.1113 0.51304,-1.348 0.7168,-1.2715 0.0599,0.022 0.43601,0.5179 0.83593,1.0996 l 0.72852,1.0566 h 1.19922 c 0.48934,4e-4 0.7613,0.015 1,0.029 0.52276,-0.6944 0.59208,-0.9299 0.34766,-0.9941 -0.0816,-0.021 -0.6892,-0.039 -1.34961,-0.039 h -1.19922 l -0.72852,-1.0586 c -0.39992,-0.5817 -0.77604,-1.0752 -0.83594,-1.0976 z m 2.94141,5.2344 -0.20312,0.252 0.11132,0.4336 c 0.061,0.2382 0.21095,0.7464 0.33399,1.1308 0.0168,0.052 0.0126,0.062 0.0273,0.1094 0.0258,0 0.0535,-7e-4 0.0762,-0.01 0.17249,-0.054 0.14928,-0.3076 -0.10547,-1.1035 -0.0885,-0.2764 -0.16686,-0.5561 -0.24023,-0.8145 z m -4.61719,0.7871 -0.002,0.2305 c -0.006,0.6743 -0.006,1.2912 -0.002,1.3711 2.7e-4,0 0.004,0 0.004,0.01 9e-4,-0.1668 -0.002,-0.1916 0,-0.377 l 0.0117,-1.2265 z"
       id="path857-1-7-2"
       inkscape:connector-curvature="0" />
    <path
       style="opacity:0.2;fill:#ffffff;fill-opacity:1;stroke-width:0.0652215"
       d="m 27.443358,1094.5197 c -0.11063,-0.01 -0.27756,0.1621 -0.63477,0.6113 -0.76474,0.9618 -0.57107,0.866 -1.62304,0.7988 -0.93774,-0.06 -1.09961,-0.046 -1.09961,0.094 0,0.045 0.22219,0.4216 0.49414,0.8379 0.0175,0.027 0.0142,0.026 0.0312,0.053 0.1612,0 0.27678,0 0.57617,0.018 1.05197,0.067 0.85831,0.163 1.62305,-0.7988 0.47627,-0.5989 0.61339,-0.7021 0.73047,-0.5449 0.0401,0.054 0.17278,0.4781 0.29492,0.9414 l 0.22265,0.8418 0.76758,0.2715 c 0.16267,0.058 0.2099,0.082 0.33203,0.1269 0.043,-0.029 0.14785,-0.095 0.16016,-0.1054 0.0412,-0.034 0.20137,-0.1479 0.35547,-0.2539 0.1541,-0.1061 0.27929,-0.2216 0.27929,-0.2559 0,-0.089 -0.25416,-0.2033 -1.1289,-0.5137 l -0.76758,-0.2734 -0.22266,-0.8418 c -0.12214,-0.4633 -0.25482,-0.8857 -0.29492,-0.9395 -0.0293,-0.039 -0.0588,-0.063 -0.0957,-0.066 z m -2.58789,3.7969 c -0.0769,0.2225 -0.0949,0.3125 -0.20508,0.5976 -0.0929,0.2404 -0.16992,0.4796 -0.16992,0.5313 0,0.095 0.10144,0.1277 0.29492,0.1113 0.13871,-0.3819 0.30078,-0.8229 0.30078,-0.875 0,-0.015 -0.14719,-0.2422 -0.2207,-0.3652 z"
       id="path855-2-65-5"
       inkscape:connector-curvature="0" />
    <path
       style="opacity:0.2;fill:#ffffff;fill-opacity:1;stroke-width:0.0652215"
       d="m 18.751948,1095.2326 c -0.0692,0.013 -0.1961,0.2794 -0.375,0.791 l -0.27148,0.7754 -0.81641,0.2285 c -0.55624,0.1557 -0.82254,0.2599 -0.83594,0.3281 -0.0141,0.072 0.33534,0.3747 0.76172,0.6973 0.0319,-0.01 0.0422,-0.014 0.0762,-0.023 l 0.8164,-0.2285 0.27149,-0.7735 c 0.1789,-0.5116 0.30575,-0.7804 0.375,-0.7929 0.0697,-0.013 0.25617,0.2061 0.55859,0.6543 l 0.45312,0.6738 0.8418,0.025 c 0.16883,0.01 0.19281,0.024 0.33203,0.035 0.0795,-0.1089 0.0991,-0.1395 0.19532,-0.2695 0.31406,-0.4245 0.42906,-0.6286 0.38085,-0.6758 -0.038,-0.037 -0.44749,-0.08 -0.91015,-0.094 l -0.8418,-0.025 -0.45312,-0.6719 c -0.30242,-0.4482 -0.4889,-0.667 -0.5586,-0.6543 z m 2.0293,3.6152 c -0.0382,0.053 -0.13981,0.1895 -0.14844,0.2031 -0.0404,0.064 0.01,0.2975 0.125,0.709 0.26497,0.032 0.25347,-0.1257 0.10547,-0.6152 -0.0433,-0.1433 -0.0508,-0.1881 -0.082,-0.2969 z m -3.0332,0.5996 c -1.9e-4,0.216 1.8e-4,0.4081 0.002,0.4961 l 0.002,-0.4922 z"
       id="path830-9-6-47"
       inkscape:connector-curvature="0" />
  </g>
</svg>
