<?xml version="1.0" encoding="UTF-8"?>
<svg version="1.1" viewBox="0 0 64 64" xmlns="http://www.w3.org/2000/svg" xmlns:cc="http://creativecommons.org/ns#" xmlns:dc="http://purl.org/dc/elements/1.1/" xmlns:rdf="http://www.w3.org/1999/02/22-rdf-syntax-ns#">
<metadata>
<rdf:RDF>
<cc:Work rdf:about="">
<dc:format>image/svg+xml</dc:format>
<dc:type rdf:resource="http://purl.org/dc/dcmitype/StillImage"/>
<dc:title/>
</cc:Work>
</rdf:RDF>
</metadata>
<g transform="translate(0 -1058.5)">
<path d="m24.428 1075.1c-0.14316-0.01-0.27888 0.04-0.36131 0.1399l-0.81894 1.4247-3.677 8.0064s-5.1609 10.786-5.1557 11.143l-3.7952 8.4346s-4.4752 9.4405-4.5899 10.013c-0.14847 0.6544 0.24792 1.4568 1.4087 1.1643 3.594-1.0922 1.7457-0.5136 3.594-1.0922 3.4719-1.0869 3.3879-1.0426 3.472-1.0869l6.8821-2.1332 3e-3 0.01 5.5971-1.7435 9.5403-2.9574 9.0263-2.6757 3.157-1.0698c0.61315-0.2277 0.75389-0.6568 0.3559-1.1507l-8.7778-9.5016-15.456-16.731c-0.11129-0.1214-0.26167-0.184-0.40483-0.1914z" opacity=".2"/>
<path d="m6.2428 1114.2c0.11275 0.1228 0.26681 0.2154 0.46484 0.2597-0.19807-0.044-0.35203-0.1368-0.46484-0.2597z" fill="#f2f2f2"/>
<path d="m50.133 1096.8c-9e-3 -0.163-7e-3 -1.4228 6e-3 -2.7994l0.0223-2.5031-1.2396-0.8833c-1.8193-1.2964-2.859-2.1993-2.859-2.4827 0-0.3496 0.28107-0.4686 2.8117-1.1911 1.2355-0.3528 2.2867-0.687 2.336-0.7427 0.0493-0.056 0.43124-1.1211 0.84872-2.3675 0.76-2.2689 1.0276-2.7532 1.4352-2.5969 0.1198 0.046 0.87223 1.0551 1.6721 2.2427l1.4542 2.1592h2.4015c1.3208 0 2.535 0.038 2.6982 0.081 0.62711 0.1679 0.2714 0.8547-1.7847 3.4459l-0.97083 1.2235 0.22161 0.8843c0.12189 0.4863 0.42296 1.5264 0.66904 2.3112 0.50951 1.625 0.55864 2.1429 0.21365 2.2523-0.28886 0.092-0.51641 0.024-3.0555-0.9017l-2.0367-0.7429-0.89728 0.6294c-2.7044 1.8971-3.3046 2.2761-3.6036 2.2761-0.24511 0-0.33006-0.073-0.34266-0.2964z" opacity=".2" stroke-width=".1318"/>
<path d="m55.684 1078.1c-0.17931-0.1237-0.85087-0.6572-1.4924-1.1857-0.64148-0.5284-1.2401-0.9607-1.3302-0.9607-0.0901 0-0.87061 0.209-1.7344 0.4644-1.5598 0.4613-2.1639 0.4972-2.1639 0.1289 0-0.1057 0.15199-0.5936 0.33775-1.0843 0.4558-1.2041 0.84893-2.3719 0.84893-2.5218 0-0.067-0.44501-0.8183-0.9889-1.6683-0.5439-0.8499-0.9889-1.6201-0.9889-1.7115 0-0.286 0.32385-0.3142 2.1994-0.1919 2.104 0.1372 1.7162 0.3321 3.2457-1.6315 0.95255-1.2228 1.2292-1.4331 1.4634-1.1122 0.0802 0.1098 0.34562 0.9736 0.58991 1.9194l0.44415 1.7196 1.5336 0.5555c1.7495 0.6336 2.2588 0.8709 2.2588 1.0523 0 0.07-0.25217 0.3047-0.56037 0.5213-0.30821 0.2165-0.6279 0.4502-0.71041 0.5192-0.0825 0.069-0.5646 0.3909-1.0713 0.7154l-0.92124 0.59-0.0912 1.8228c-0.0502 1.0026-0.12092 1.9266-0.15726 2.0534-0.0833 0.2906-0.29567 0.2923-0.71118 0.01z" opacity=".2" stroke-width=".1318"/>
<path d="m35.5 1077.9c-8e-3 -0.1268-0.0106-0.925-6e-3 -1.7737l8e-3 -1.5433-0.42253-0.2984c-1.1893-0.84-2.2101-1.7481-2.1743-1.9341 0.0269-0.1392 0.56062-0.3535 1.6731-0.6715l1.6337-0.4669 0.54099-1.5795c0.35781-1.0446 0.61191-1.5926 0.7504-1.6182 0.13944-0.026 0.51284 0.4203 1.1177 1.3354l0.90827 1.3741 1.6824 0.052c0.92533 0.029 1.7446 0.1146 1.8206 0.1905 0.0964 0.096-0.13433 0.5141-0.76255 1.3807-0.49543 0.6834-0.94889 1.3204-1.0077 1.4154-0.10635 0.172-9e-3 0.6426 0.46464 2.2408 0.46399 1.5664 0.42997 1.5825-1.7218 0.8124l-1.4644-0.5241-1.2784 0.9193c-1.2977 0.9332-1.7368 1.1047-1.7626 0.6887z" opacity=".2" stroke-width=".1318"/>
<g transform="translate(-118 647.63)">
<path d="m141.25 428.07-4.8962 10.697 9.9097 21.675-0.76357 0.18276 9.0312-2.7988c-0.0856-0.14011-13.148-29.405-13.281-29.756z" fill="#5bd16a"/>
<path d="m158.29 443.43c1.4546 3.1743 5.2265 11.712 5.1914 11.74l0.0703-0.0215 3.1562-1.0703c0.61315-0.22772 0.75541-0.65655 0.35743-1.1504z" fill="#ab63be"/>
<path d="m132.41 447.21-3.7949 8.4356 3.8848 8.998 6.8808-2.1328z" fill="#ffc331"/>
<path d="m124.03 465.66c0.11467-0.57283 4.59-10.013 4.59-10.013l3.8848 8.998c-0.0841 0.0443-1.6e-4 4.5e-4 -3.4721 1.0873-1.8484 0.57861 0 0-3.594 1.0922-1.1608 0.29252-1.5571-0.50983-1.4087-1.1642z" fill="#ff575a" stroke-width=".1318"/>
<path d="m132.41 447.22c-5e-3 -0.35687 3.9356-8.4522 3.9356-8.4522l9.9097 21.675-6.8702 2.0848z" fill="#ffe91d" stroke-width=".1318"/>
<path d="m154.53 457.82c-0.0856-0.14011-13.146-29.405-13.28-29.756l0.81871-1.4247c0.16486-0.19926 0.54378-0.19146 0.76635 0.0515l15.456 16.731c1.4537 3.1721 5.2289 11.714 5.1938 11.743l-8.9553 2.655z" fill="#58c2da" stroke-width=".1318"/>
</g>
<path d="m50.133 1095.8c-9e-3 -0.163-7e-3 -1.4228 6e-3 -2.7994l0.0223-2.5031-1.2396-0.8833c-1.8193-1.2964-2.859-2.1993-2.859-2.4827 0-0.3496 0.28107-0.4686 2.8117-1.1911 1.2355-0.3528 2.2867-0.687 2.336-0.7427 0.0493-0.056 0.43124-1.1211 0.84872-2.3675 0.76-2.2689 1.0276-2.7532 1.4352-2.5969 0.1198 0.046 0.87223 1.0551 1.6721 2.2427l1.4542 2.1592h2.4015c1.3208 0 2.535 0.038 2.6982 0.081 0.62711 0.1679 0.2714 0.8547-1.7847 3.4459l-0.97083 1.2235 0.22161 0.8843c0.12189 0.4863 0.42296 1.5264 0.66904 2.3112 0.50951 1.625 0.55864 2.1429 0.21365 2.2523-0.28886 0.092-0.51641 0.024-3.0555-0.9017l-2.0367-0.7429-0.89728 0.6294c-2.7044 1.8971-3.3046 2.2761-3.6036 2.2761-0.24511 0-0.33006-0.073-0.34266-0.2964z" fill="#ffd42a" stroke-width=".1318"/>
<path d="m55.684 1077.1c-0.17931-0.1237-0.85087-0.6572-1.4924-1.1857-0.64148-0.5284-1.2401-0.9607-1.3302-0.9607-0.0901 0-0.87061 0.209-1.7344 0.4644-1.5598 0.4613-2.1639 0.4972-2.1639 0.1289 0-0.1057 0.15199-0.5936 0.33775-1.0843 0.4558-1.2041 0.84893-2.3719 0.84893-2.5218 0-0.067-0.44501-0.8183-0.9889-1.6683-0.5439-0.8499-0.9889-1.6201-0.9889-1.7115 0-0.286 0.32385-0.3142 2.1994-0.1919 2.104 0.1372 1.7162 0.3321 3.2457-1.6315 0.95255-1.2228 1.2292-1.4331 1.4634-1.1122 0.0802 0.1098 0.34562 0.9736 0.58991 1.9194l0.44415 1.7196 1.5336 0.5555c1.7495 0.6336 2.2588 0.8709 2.2588 1.0523 0 0.07-0.25217 0.3047-0.56037 0.5213-0.30821 0.2165-0.6279 0.4502-0.71041 0.5192-0.0825 0.069-0.5646 0.3909-1.0713 0.7154l-0.92124 0.59-0.0912 1.8228c-0.0502 1.0026-0.12092 1.9266-0.15726 2.0534-0.0833 0.2906-0.29567 0.2923-0.71118 0.01z" fill="#ffd42a" stroke-width=".1318"/>
<path d="m35.5 1076.9c-8e-3 -0.1268-0.0106-0.925-6e-3 -1.7737l8e-3 -1.5433-0.42253-0.2984c-1.1893-0.84-2.2101-1.7481-2.1743-1.9341 0.0269-0.1392 0.56062-0.3535 1.6731-0.6715l1.6337-0.4669 0.54099-1.5795c0.35781-1.0446 0.61191-1.5926 0.7504-1.6182 0.13944-0.026 0.51284 0.4203 1.1177 1.3354l0.90827 1.3741 1.6824 0.052c0.92533 0.029 1.7446 0.1146 1.8206 0.1905 0.0964 0.096-0.13433 0.5141-0.76255 1.3807-0.49543 0.6834-0.94889 1.3204-1.0077 1.4154-0.10635 0.172-9e-3 0.6426 0.46464 2.2408 0.46399 1.5664 0.42997 1.5825-1.7218 0.8124l-1.4644-0.5241-1.2784 0.9193c-1.2977 0.9332-1.7368 1.1047-1.7626 0.6887z" fill="#ffd42a" stroke-width=".1318"/>
<path d="m24.428 1074.1c-0.14316-0.01-0.27889 0.041-0.36132 0.1406l-0.81836 1.4239-3.6777 8.0078s-5.1615 10.786-5.1562 11.143l-3.7949 8.4336s-4.4752 9.4408-4.5898 10.014c-0.0588 0.2593-0.0283 0.5392 0.0976 0.7676 0.37329-1.0875 4.4922-9.7812 4.4922-9.7812l3.7949-8.4336c-5e-3 -0.3569 5.1562-11.143 5.1562-11.143l3.6777-8.0078 0.81836-1.4239c0.0824-0.1 0.21816-0.1476 0.36132-0.1406 0.14316 0.01 0.29301 0.07 0.4043 0.1914l15.457 16.73 8.748 9.4707c0.31243-0.2415 0.33932-0.5841 0.0293-0.9688l-8.7774-9.5019-15.457-16.73c-0.11129-0.1214-0.26114-0.184-0.4043-0.1914z" fill="#f7f7f7" opacity=".2"/>
<path d="m53.348 1080.2c-0.33465 0.019-0.62407 0.6377-1.2891 2.623-0.41748 1.2463-0.79835 2.3134-0.84765 2.3692-0.0493 0.056-1.1004 0.3894-2.3359 0.7422-2.5306 0.7225-2.8125 0.8418-2.8125 1.1914 0 0.1016 0.17833 0.3062 0.43359 0.5566 0.37856-0.166 1.0742-0.3755 2.3789-0.748 1.2355-0.3528 2.2866-0.6865 2.3359-0.7422 0.0493-0.056 0.43017-1.1229 0.84765-2.3692 0.76-2.2689 1.028-2.7519 1.4356-2.5957 0.1198 0.046 0.87204 1.0546 1.6719 2.2422l1.4551 2.1602h2.4004c1.3152 1e-3 2.5201 0.037 2.6914 0.08 0.35909-0.6251 0.34984-0.9085 8e-3 -1-0.16316-0.044-1.3784-0.079-2.6992-0.08h-2.4004l-1.4551-2.1602c-0.79984-1.1876-1.5521-2.1962-1.6719-2.2422-0.0509-0.02-0.0987-0.03-0.14649-0.027zm5.8066 9.9433-0.18946 0.2383 0.22071 0.8848c0.12189 0.4863 0.42384 1.5257 0.66992 2.3105 0.15837 0.5051 0.25672 0.8734 0.32812 1.1856 0.20841-0.199 0.11428-0.7746-0.32812-2.1856-0.24608-0.7848-0.54803-1.8242-0.66992-2.3105zm-9.002 1.3418-0.0137 1.5098c-0.013 1.3767-0.0149 2.6358-6e-3 2.7988 2.7e-4 0.01 2e-3 0.01 2e-3 0.012-7.9e-4 -0.5274-5e-3 -0.92 4e-3 -1.8105l0.0234-2.5039z" fill="#fff" opacity=".2" stroke-width=".1318"/>
<path d="m54.887 1065.5c-0.22126-0.019-0.55512 0.3289-1.2695 1.2461-1.5295 1.9636-1.1421 1.77-3.2461 1.6328-1.8755-0.1223-2.1992-0.095-2.1992 0.1914 0 0.053 0.16943 0.3586 0.4004 0.75 0.31584-0.027 0.86382 0 1.7988 0.059 2.104 0.1372 1.7166 0.3308 3.2461-1.6328 0.95255-1.2229 1.2287-1.4323 1.4629-1.1113 0.0802 0.1098 0.34555 0.9721 0.58984 1.9179l0.44531 1.7207 1.5332 0.5547c0.79346 0.2874 1.2677 0.4767 1.6191 0.6328 0.0342-0.024 0.0439-0.035 0.0781-0.059 0.3082-0.2165 0.56054-0.4514 0.56054-0.5215 0-0.1814-0.50831-0.4191-2.2578-1.0527l-1.5332-0.5547-0.44531-1.7207c-0.24429-0.9458-0.50964-1.8081-0.58984-1.9179-0.0585-0.08-0.11961-0.1285-0.19336-0.1348zm-4.9258 7.0957c-0.15511 0.4845-0.37462 1.1207-0.66016 1.875-0.18576 0.4907-0.33789 0.9803-0.33789 1.0859 0 0.1225 0.0977 0.1826 0.24414 0.2149 0.0438-0.1275 0.0423-0.1649 0.0937-0.3008 0.4558-1.2041 0.84961-2.3716 0.84961-2.5215 0-0.022-0.10665-0.2062-0.18945-0.3535z" fill="#fff" opacity=".2" stroke-width=".1318"/>
<path d="m37.504 1067c-0.13849 0.026-0.39415 0.5725-0.75196 1.6172l-0.54101 1.58-1.6328 0.4668c-1.1125 0.318-1.6469 0.5326-1.6738 0.6719-0.0171 0.089 0.21801 0.3477 0.58593 0.6797 0.27114-0.1018 0.60154-0.2125 1.0879-0.3516l1.6328-0.4668 0.54101-1.58c0.35781-1.0447 0.61347-1.5916 0.75196-1.6172 0.13944-0.026 0.51234 0.4189 1.1172 1.3339l0.90821 1.375 1.6816 0.053c0.57266 0.018 1.0288 0.058 1.3691 0.1036 0.33719-0.5026 0.52459-0.8408 0.45117-0.9141-0.076-0.076-0.89498-0.1607-1.8203-0.1895l-1.6816-0.053-0.90821-1.3749c-0.60484-0.9151-0.97774-1.3598-1.1172-1.334zm3.8496 6.6172c-0.0118 0.017-0.0864 0.1221-0.0918 0.1308-0.10635 0.172-9e-3 0.6421 0.46484 2.2402 0.0372 0.1256 0.0443 0.1811 0.0742 0.2872 0.26442-0.079 0.16916-0.4655-0.0742-1.2872-0.19631-0.6623-0.29373-1.037-0.37305-1.371zm-5.8574 0.9472-2e-3 0.5469c-2e-3 0.2898 2e-3 0.3522 2e-3 0.6055l6e-3 -1.1485z" fill="#fff" opacity=".2" stroke-width=".1318"/>
</g>
</svg>
