<?xml version="1.0" encoding="UTF-8"?>
<svg version="1.1" width="48" height="48" viewBox="0 0 48 48" xmlns="http://www.w3.org/2000/svg" xmlns:cc="http://creativecommons.org/ns#" xmlns:dc="http://purl.org/dc/elements/1.1/" xmlns:rdf="http://www.w3.org/1999/02/22-rdf-syntax-ns#" xmlns:xlink="http://www.w3.org/1999/xlink">
<defs>
<linearGradient id="c" x1="87.17" x2="115.91" y1="119.79" y2="89.81" gradientTransform="matrix(.39717 -.25333 .24864 .40466 -58.808 1074.4)" gradientUnits="userSpaceOnUse" xlink:href="#a"/>
<linearGradient id="a">
<stop stop-color="#eabb00" offset="0"/>
<stop stop-color="#ffe371" offset="1"/>
</linearGradient>
<linearGradient id="d" x1="116.08" x2="103.31" y1="114.28" y2="89.058" gradientTransform="matrix(.40579 .22017 -.21609 .41344 16.983 1032.4)" gradientUnits="userSpaceOnUse" xlink:href="#a"/>
<linearGradient id="e" x1="105.05" x2="109.19" y1="117.09" y2="88.456" gradientTransform="matrix(.70819 .058785 -.056356 .73871 -43.996 1007.1)" gradientUnits="userSpaceOnUse" xlink:href="#a"/>
<radialGradient id="b" cx="126.18" cy="138.75" r="29.199" gradientTransform="matrix(-.03597 -.6176 .68618 .023977 271.9 1132.9)" gradientUnits="userSpaceOnUse">
<stop stop-color="#241c1c" offset="0"/>
<stop stop-color="#916f6f" offset="1"/>
</radialGradient>
<linearGradient id="g" x1="72.094" x2="81.703" y1="157.68" y2="126.79" gradientTransform="matrix(.51987 0 0 .52967 -21.415 1043.1)" gradientUnits="userSpaceOnUse">
<stop stop-color="#424242" offset="0"/>
<stop stop-opacity="0" offset="1"/>
</linearGradient>
<linearGradient id="f" x1="91.004" x2="79.182" y1="95.026" y2="135.99" gradientTransform="matrix(.51987 0 0 .52967 -22.105 1040.6)" gradientUnits="userSpaceOnUse">
<stop stop-color="#fff" offset="0"/>
<stop stop-color="#999" stop-opacity="0" offset="1"/>
</linearGradient>
</defs>
<metadata>
<rdf:RDF>
<cc:Work rdf:about="">
<dc:format>image/svg+xml</dc:format>
<dc:type rdf:resource="http://purl.org/dc/dcmitype/StillImage"/>
<dc:title/>
</cc:Work>
</rdf:RDF>
</metadata>
<g transform="translate(0 -1074.5)">
<g transform="matrix(.77933 0 0 .79055 -92.95 852.19)">
<path d="m154.2 312.95 0.01 5.5566c-5.6732 3.4666-12.872 0.81995-19.852-3.3495l0.99261 2.7968 0.0391 0.11132 1.0527 2.9531c8.983 7.6552 18.224 1.2007 27.318-2.1777v-2.9746z" fill="#58c2da"/>
<path d="m161.32 322.57c-8.0984 4.8402-15.41 10.296-22.799 4.3446l1.3969 3.9093c4.5026 4.2122 11.55-0.68204 17.035-4.4492z" fill="#ffe91d"/>
<path d="m150.94 331.61c-3.2108 2.6578-6.9484 4.1176-9.8359 2.5859l1.0273 2.9024 0.0137 0.0254c0.77416 0.62168 2.0432-0.0739 3.8789-1.2305z" fill="#ff575a"/>
<path d="m131.07 305.9 3.283 9.2618c6.98 4.1695 14.177 6.8181 19.85 3.3515l-0.01-5.5586z" fill="#ab63be"/>
<path d="m163.76 315.87v2.9746c-9.094 3.3785-18.335 9.8329-27.318 2.1777l2.0836 5.8954c7.3897 5.9514 14.699 0.49754 22.797-4.3427h2e-3l6.332-5.5156z" fill="#5bd16a"/>
<path d="m156.95 326.38c-5.4856 3.7674-12.534 8.664-17.037 4.4512l-0.01-2e-3 1.1953 3.373h2e-3c2.8908 1.5334 6.6344 0.0698 9.8476-2.5938z" fill="#ffc331"/>
<path d="m146.02 335.9c-1.8357 1.1566-3.1048 1.8522-3.8789 1.2305l-0.0137-0.0254 0.10742 0.30469c0.33945 0.91892 1.0422 0.80617 1.9297 0.10742z" fill="#ff575a"/>
</g>
<path d="m8.5084 1091.6 8.7013 24.91c0.26454 0.7265 0.81294 0.6384 1.5046 0.086l18.302-16.172z" fill="url(#f)"/>
<path d="m9.1988 1094 8.7013 24.91c0.26454 0.7264 0.81291 0.6383 1.5046 0.086l18.302-16.172z" fill="url(#g)"/>
<path transform="matrix(.45886 .24897 -.24436 .46752 14.363 1023.6)" d="m113.96 112.74-7.3256-5.2016-8.4379 3.0857 2.6833-8.5744-5.5422-7.0714 8.9839-0.09764 5.0127-7.4561 2.869 8.5141 8.6402 2.4633-7.2108 5.3596z" fill="#ffd42a" style="paint-order:fill markers stroke"/>
<path d="m9.1988 1094 6.8915 19.709c-0.0894-3.943-3.1733-11.052-4.4824-15.257 1.823 2.7315 15.962 9.3609 23.503 5.8533-7.5384 1.7315-23.746-3.6065-25.912-10.305z" fill="#fff" opacity=".373"/>
<ellipse transform="matrix(.9515 .30766 -.29739 .95476 0 0)" cx="348.96" cy="1037" rx="15.206" ry="5.6962" fill="#c8b7b7" style="paint-order:fill markers stroke"/>
<path transform="matrix(.45886 .24897 -.24436 .46752 14.363 1023.6)" d="m113.96 112.74-7.3256-5.2016-8.4379 3.0857 2.6833-8.5744-5.5422-7.0714 8.9839-0.09764 5.0127-7.4561 2.869 8.5141 8.6402 2.4633-7.2108 5.3596z" fill="#fde580" style="paint-order:fill markers stroke"/>
<ellipse transform="matrix(.95493 .29685 -.30821 .95132 0 0)" cx="360.96" cy="1041.4" rx="14.743" ry="5.3479" fill="url(#b)" style="paint-order:fill markers stroke"/>
<path transform="matrix(.77521 .064349 -.061689 .80863 -50.57 999.03)" d="m113.96 112.74-7.3256-5.2016-8.4379 3.0857 2.6833-8.5744-5.5422-7.0714 8.9839-0.09764 5.0127-7.4561 2.869 8.5141 8.6402 2.4633-7.2108 5.3596z" fill="#fde580" style="paint-order:fill markers stroke"/>
<path transform="matrix(.44065 -.28106 .27585 .44896 -65.97 1072.7)" d="m113.96 112.74-7.3256-5.2016-8.4379 3.0857 2.6833-8.5744-5.5422-7.0714 8.9839-0.09764 5.0127-7.4561 2.869 8.5141 8.6402 2.4633-7.2108 5.3596z" fill="#fde580" style="paint-order:fill markers stroke"/>
<ellipse cx="14.51" cy="1079.4" rx=".67736" ry=".70783" fill="#f95" stroke="#d25400" stroke-linecap="round" stroke-width=".21622" style="paint-order:fill markers stroke"/>
<ellipse cx="41.129" cy="1084.2" rx=".87714" ry=".8873" fill="#f5d" stroke="#b0008c" stroke-linecap="round" stroke-width=".21622" style="paint-order:fill markers stroke"/>
<ellipse cx="2.6302" cy="1094.7" rx=".50368" ry=".53087" fill="#80e5ff" stroke="#009cc3" stroke-linecap="round" stroke-width=".21622" style="paint-order:fill markers stroke"/>
<ellipse cx="44.509" cy="1106.2" rx=".62911" ry=".66489" fill="#8dd35f" stroke="#64b131" stroke-linecap="round" stroke-width=".21622" style="paint-order:fill markers stroke"/>
<path d="m15.968 1090.3a15.206 5.6959 18.019 0 0-6.8009 2.4907 15.206 5.6959 18.019 0 0 0.46119 2.4334l8.2743 23.686c0.26454 0.7265 0.81219 0.6374 1.5039 0.085l17.387-15.362a15.206 5.6959 18.019 0 0 1.309-1.487 15.206 5.6959 18.019 0 0-12.774-10.115 15.206 5.6959 18.019 0 0-9.3611-1.7309z" fill="none" stroke="#6a2929" stroke-width=".21622"/>
<path d="m28.506 1078.1-3.9701 5.2133-7.0579-1.3971 3.8601 6.0748-2.6091 6.7608 6.7316-1.9521 5.3579 4.6775 0.30021-7.2813 5.9205-3.87-6.9812-1.7678z" fill="url(#e)" style="paint-order:fill markers stroke"/>
<path d="m42.458 1092.7-3.6453 1.979-3.9112-2.9421 0.81516 4.6858-3.3265 3.3406 4.6258 0.6582 2.0904 4.2556 2.0438-4.2791 4.6184-0.7104-3.9862-2.8359z" fill="url(#d)" style="paint-order:fill markers stroke"/>
<path d="m6.3534 1082.1-0.18243 3.8741-3.9318 2.5688 4.3929 1.6172 1.1828 4.6037 2.867-3.7569 4.6628 0.2764-2.6209-3.939 0.93027-3.7178-4.044 1.192z" fill="url(#c)" style="paint-order:fill markers stroke"/>
<path d="m43.17 1091.7-4.1221 2.2378-4.1463-2.191 0.81515 4.6858-3.3265 3.3406c4.6861-0.5873 8.3574-0.7092 10.016-3.3785z" fill="#fff" opacity=".1" style="paint-order:fill markers stroke"/>
<path d="m28.794 1076.8-4.3459 5.7067-6.9705-0.4992 3.8601 6.0748c3.7713 1.2929 8.2586-0.6053 9.1551-4.213z" fill="#fffdf7" opacity=".1" style="paint-order:fill markers stroke"/>
<path d="m6.3534 1082.1-0.18243 3.8741-3.9318 2.5688 4.3929 1.6172c3.26-0.08 5.4789-2.2152 7.022-6.5336l-4.044 1.192z" fill="#fff5d0" opacity=".1" style="paint-order:fill markers stroke"/>
<path d="m28.794 1076.8-4.3459 5.7067-6.9705-0.4992 3.8601 6.0748-2.6091 6.7608 6.7316-1.9521 5.3579 4.6775 0.30021-7.2813 5.9205-3.87-6.546-2.5479z" fill="none" stroke="#d2a800" stroke-linecap="round" stroke-width=".21622" style="paint-order:fill markers stroke"/>
<path d="m43.17 1091.7-4.1221 2.2378-4.1463-2.191 0.81516 4.6858-3.3265 3.3406 4.6258 0.6582 2.0904 4.2556 2.0438-4.2791 4.6184-0.7104-3.3627-3.3028z" fill="none" stroke="#d2a800" stroke-linecap="round" stroke-width=".21622" style="paint-order:fill markers stroke"/>
<path d="m6.323 1081.2-0.15204 4.7563-3.9318 2.5688 4.3928 1.6172 1.1828 4.6037 2.867-3.7569 4.6629 0.2764-2.6209-3.939 1.6989-4.4329-4.4868 1.3225z" fill="none" stroke="#d2a800" stroke-linecap="round" stroke-width=".21622" style="paint-order:fill markers stroke"/>
<path d="m9.628 1095.2c5.3737 7.9392 22.763 11.137 27.165 8.4092" fill="none" stroke="#6a2929" stroke-width=".21622"/>
</g>
</svg>
