<?xml version="1.0" encoding="UTF-8" standalone="no"?>
<svg
   xmlns:dc="http://purl.org/dc/elements/1.1/"
   xmlns:cc="http://creativecommons.org/ns#"
   xmlns:rdf="http://www.w3.org/1999/02/22-rdf-syntax-ns#"
   xmlns:svg="http://www.w3.org/2000/svg"
   xmlns="http://www.w3.org/2000/svg"
   xmlns:sodipodi="http://sodipodi.sourceforge.net/DTD/sodipodi-0.dtd"
   xmlns:inkscape="http://www.inkscape.org/namespaces/inkscape"
   version="1.1"
   viewBox="0 0 16 16"
   id="svg44"
   sodipodi:docname="fest.svg"
   width="16"
   height="16"
   inkscape:version="0.92.2 5c3e80d, 2017-08-06">
  <defs
     id="defs48" />
  <sodipodi:namedview
     pagecolor="#ffffff"
     bordercolor="#666666"
     borderopacity="1"
     objecttolerance="10"
     gridtolerance="10"
     guidetolerance="10"
     inkscape:pageopacity="0"
     inkscape:pageshadow="2"
     inkscape:window-width="1366"
     inkscape:window-height="713"
     id="namedview46"
     showgrid="false"
     inkscape:pagecheckerboard="true"
     inkscape:zoom="22.627417"
     inkscape:cx="9.0043914"
     inkscape:cy="6.8572828"
     inkscape:window-x="0"
     inkscape:window-y="27"
     inkscape:window-maximized="1"
     inkscape:current-layer="svg44" />
  <metadata
     id="metadata2">
    <rdf:RDF>
      <cc:Work
         rdf:about="">
        <dc:format>image/svg+xml</dc:format>
        <dc:type
           rdf:resource="http://purl.org/dc/dcmitype/StillImage" />
        <dc:title />
      </cc:Work>
    </rdf:RDF>
  </metadata>
  <path
     style="fill:#bebebe;stroke:none;stroke-width:0.57141763;stroke-miterlimit:4;stroke-dasharray:none;stroke-opacity:1;fill-opacity:1"
     inkscape:connector-curvature="0"
     id="path6"
     d="m 0.06949078,14.909399 c 0.03221337,0.03509 0.07623027,0.06154 0.13280894,0.07419 -0.05659,-0.01257 -0.10057836,-0.03909 -0.13280894,-0.07419 z" />
  <path
     style="fill:#bebebe;fill-opacity:1;stroke:none;stroke-width:0.57141763;stroke-miterlimit:4;stroke-dasharray:none;stroke-opacity:1"
     d="M 5.2656451,3.4607346 C 5.224746,3.4586174 5.1859642,3.4724455 5.16241,3.500912 L 0.00849109,14.649136 v 5.71e-4 c -0.04239946,0.186959 0.0712436,0.416158 0.40289405,0.332583 L 12.20191,11.340619 c 0.175182,-0.06506 0.215825,-0.187579 0.102118,-0.328677 -6.9223142,-7.496521 0,0 -6.9223142,-7.496521 C 5.3499148,3.480714 5.3065418,3.462853 5.2656451,3.4607346 Z"
     id="path14"
     inkscape:connector-curvature="0"
     sodipodi:nodetypes="ccccccccc" />
  <path
     style="fill:#bebebe;fill-opacity:1;stroke:none;stroke-width:0.57141763;stroke-miterlimit:4;stroke-dasharray:none;stroke-opacity:1"
     inkscape:connector-curvature="0"
     id="path28"
     d="m 12.609308,9.6523571 c -0.0025,-0.046571 -0.002,-0.4065065 0.0017,-0.7998132 l 0.0064,-0.7151578 -0.354164,-0.2523666 C 11.743496,7.5146266 11.446445,7.2566602 11.446445,7.1756903 c 0,-0.099884 0.0803,-0.1338832 0.803327,-0.3403078 0.352994,-0.1007982 0.653331,-0.1962819 0.667416,-0.2121959 0.01409,-0.015999 0.123209,-0.3203081 0.242487,-0.6764156 0.217139,-0.6482448 0.293594,-0.7866136 0.41005,-0.7419572 0.03423,0.013142 0.249203,0.3014514 0.477733,0.6407592 l 0.415478,0.6169024 h 0.68613 c 0.377363,0 0.724272,0.010857 0.770899,0.023143 0.179171,0.04797 0.07754,0.2441953 -0.509905,0.984524 l -0.277374,0.3495647 0.06331,0.2526523 c 0.03482,0.1389403 0.120843,0.436106 0.191151,0.6603303 0.145571,0.4642768 0.159608,0.6122453 0.06104,0.6435019 -0.08253,0.026285 -0.147542,0.00686 -0.872983,-0.2576236 L 13.99325,8.9063142 13.736889,9.0861394 c -0.772671,0.5420182 -0.944153,0.6503019 -1.02958,0.6503019 -0.07003,0 -0.0943,-0.020857 -0.0979,-0.084684 z" />
  <path
     style="fill:#bebebe;fill-opacity:1;stroke:none;stroke-width:0.57141763;stroke-miterlimit:4;stroke-dasharray:none;stroke-opacity:1"
     inkscape:connector-curvature="0"
     id="path30"
     d="M 14.195277,4.3096024 C 14.144046,4.27426 13.952176,4.1218345 13.768885,3.9708374 13.585609,3.8198689 13.414578,3.6963569 13.388835,3.6963569 c -0.02574,0 -0.24874,0.059713 -0.495533,0.1326832 -0.445648,0.1317975 -0.618245,0.1420544 -0.618245,0.036828 0,-0.030199 0.04342,-0.1695968 0.0965,-0.309794 0.130226,-0.3440221 0.242547,-0.6776728 0.242547,-0.7205005 0,-0.019143 -0.127143,-0.2337956 -0.282538,-0.4766481 -0.155397,-0.2428239 -0.282537,-0.4628768 -0.282537,-0.4889906 0,-0.081713 0.09253,-0.089769 0.628388,-0.054828 0.601131,0.039199 0.490333,0.094884 0.927325,-0.4661339 0.272152,-0.34936472 0.351193,-0.40944922 0.418106,-0.3177653 0.02291,0.031371 0.09875,0.2781661 0.168543,0.5483895 l 0.126897,0.4913049 0.438164,0.1587113 c 0.499847,0.181025 0.645358,0.2488238 0.645358,0.3006513 0,0.02 -0.07205,0.087056 -0.160103,0.14894 -0.08806,0.061856 -0.179396,0.1286261 -0.202969,0.14834 -0.02358,0.019714 -0.161311,0.1116836 -0.306081,0.2043961 L 14.469449,3.2005086 14.44339,3.7212985 C 14.42905,4.0077502 14.40884,4.2717452 14.39846,4.307973 14.37466,4.391 14.31399,4.391485 14.195271,4.310833 Z" />
  <path
     style="fill:#bebebe;fill-opacity:1;stroke:none;stroke-width:0.57141763;stroke-miterlimit:4;stroke-dasharray:none;stroke-opacity:1"
     inkscape:connector-curvature="0"
     id="path32"
     d="M 8.4285307,4.2524606 C 8.4262913,4.2162326 8.425477,3.9881799 8.4268003,3.7456988 L 8.4290396,3.3047645 8.3083192,3.2195085 C 7.9685259,2.9795131 7.6768741,2.720061 7.687103,2.6669191 7.694839,2.6271489 7.8472772,2.5659214 8.1651225,2.4750657 L 8.6318851,2.3416682 8.7864506,1.8903912 C 8.88868,1.5919397 8.9612784,1.4353713 9.0008461,1.4280572 c 0.039841,-0.00743 0.1465232,0.1200834 0.3193365,0.3815355 l 0.2595006,0.3925925 0.4806768,0.014857 c 0.264375,0.00829 0.498448,0.032743 0.520162,0.054428 0.02754,0.027428 -0.03838,0.1468829 -0.217868,0.3944782 -0.141548,0.1952533 -0.271106,0.3772498 -0.287909,0.4043922 -0.03038,0.049142 -0.0025,0.1835964 0.132752,0.6402163 0.132566,0.4475343 0.122846,0.4521342 -0.4919328,0.2321098 L 9.2971721,3.7929269 8.9319213,4.055579 C 8.5611575,4.3222025 8.4357028,4.3712016 8.4283312,4.2523467 Z" />
</svg>
