<?xml version="1.0" encoding="UTF-8"?>
<svg version="1.1" viewBox="0 0 48 48" xmlns="http://www.w3.org/2000/svg" xmlns:cc="http://creativecommons.org/ns#" xmlns:dc="http://purl.org/dc/elements/1.1/" xmlns:rdf="http://www.w3.org/1999/02/22-rdf-syntax-ns#">
<metadata>
<rdf:RDF>
<cc:Work rdf:about="">
<dc:format>image/svg+xml</dc:format>
<dc:type rdf:resource="http://purl.org/dc/dcmitype/StillImage"/>
<dc:title/>
</cc:Work>
</rdf:RDF>
</metadata>
<g transform="translate(0 -1074.5)">
<path d="m16.482 1087.2c-0.11248-0.01-0.21912 0.031-0.28388 0.1085l-0.64344 1.1048-2.889 6.209s-4.055 8.3646-4.0509 8.6413l-2.9819 6.541s-3.5162 7.3211-3.6063 7.7653c-0.11666 0.5075 0.19479 1.1298 1.1068 0.9029 2.8238-0.847 1.3716-0.3983 2.8239-0.847 2.7279-0.8428 2.6619-0.8085 2.728-0.8428l5.4074-1.6544h0.0026l4.3977-1.352 7.4959-2.2935 7.092-2.075 2.4805-0.8297c0.48175-0.1766 0.59233-0.5093 0.27963-0.8923l-6.8968-7.368-12.144-12.975c-0.08744-0.094-0.2056-0.1427-0.31808-0.1484z" opacity=".2"/>
<path d="m36.678 1104c-7e-3 -0.1264-5e-3 -1.1033 5e-3 -2.1709l0.0175-1.9411-0.97392-0.685c-1.4294-1.0054-2.2464-1.7056-2.2464-1.9254 0-0.2711 0.22084-0.3634 2.2092-0.9237 0.97073-0.2736 1.7967-0.5327 1.8354-0.576 0.0387-0.043 0.33883-0.8694 0.66685-1.8359 0.59714-1.7596 0.80744-2.1351 1.1276-2.014 0.0941 0.036 0.68532 0.8183 1.3138 1.7393l1.1426 1.6744h1.8869c1.0378 8e-4 1.9918 0.029 2.12 0.063 0.49272 0.1303 0.21324 0.6629-1.4022 2.6723l-0.76278 0.9488 0.17412 0.6858c0.0958 0.3772 0.33232 1.1837 0.52567 1.7924 0.40032 1.2601 0.43892 1.6617 0.16786 1.7466-0.22696 0.071-0.40574 0.019-2.4008-0.6993l-1.6002-0.5761-0.705 0.4882c-2.1249 1.4711-2.5964 1.7651-2.8314 1.7651-0.19259 0-0.25933-0.057-0.26923-0.2299z" opacity=".2" stroke-width=".10288"/>
<path d="m41.04 1089.5c-0.14089-0.096-0.66854-0.5096-1.1726-0.9194-0.50401-0.4098-0.97432-0.7451-1.0451-0.7451s-0.68405 0.1621-1.3628 0.3602c-1.2255 0.3577-1.7002 0.3856-1.7002 0.1 0-0.082 0.11942-0.4604 0.26536-0.8409 0.35813-0.9338 0.66701-1.8394 0.66701-1.9557 0-0.052-0.34965-0.6345-0.77697-1.2937-0.42735-0.6591-0.777-1.2564-0.777-1.3272 0-0.2218 0.25446-0.2438 1.728-0.1489 1.6531 0.1064 1.3484 0.2576 2.5502-1.2652 0.74842-0.9483 0.96581-1.1114 1.1498-0.8625 0.063 0.085 0.27155 0.755 0.46349 1.4884l0.34898 1.3336 1.205 0.4308c1.3746 0.4914 1.7748 0.6754 1.7748 0.8161 0 0.054-0.19813 0.2363-0.44029 0.4042-0.24216 0.168-0.49335 0.3491-0.55817 0.4026-0.0648 0.053-0.44362 0.3032-0.84172 0.5549l-0.72382 0.4575-0.0717 1.4136c-0.0394 0.7775-0.095 1.4941-0.12356 1.5924-0.0654 0.2253-0.23231 0.2266-0.55878 0.01z" opacity=".2" stroke-width=".10288"/>
<path d="m25.181 1089.3c-0.0063-0.098-0.0083-0.7173-0.0047-1.3756l0.0063-1.1967-0.33198-0.2315c-0.93441-0.6514-1.7365-1.3556-1.7083-1.4998 0.02114-0.108 0.44048-0.2742 1.3146-0.5208l1.2836-0.3621 0.42506-1.2249c0.28114-0.8101 0.48078-1.235 0.5896-1.2549 0.10956-0.02 0.40294 0.326 0.87817 1.0356l0.71364 1.0657 1.3219 0.041c0.72704 0.022 1.3708 0.089 1.4305 0.1477 0.0757 0.075-0.10554 0.3986-0.59914 1.0707-0.38926 0.53-0.74555 1.0239-0.79176 1.0977-0.08356 0.1333-0.0071 0.4983 0.36507 1.7377 0.36457 1.2147 0.33784 1.2272-1.3529 0.6299l-1.1506-0.4064-1.0044 0.7129c-1.0196 0.7237-1.3646 0.8568-1.3849 0.5342z" opacity=".2" stroke-width=".10288"/>
<path d="m36.676 1103c-7e-3 -0.1264-5e-3 -1.1033 5e-3 -2.1709l0.0175-1.9411-0.97393-0.685c-1.4294-1.0054-2.2464-1.7056-2.2464-1.9254 0-0.2711 0.22084-0.3634 2.2092-0.9237 0.97074-0.2736 1.7967-0.5327 1.8354-0.576 0.0387-0.043 0.33883-0.8694 0.66685-1.8359 0.59714-1.7596 0.80744-2.1351 1.1276-2.014 0.0941 0.036 0.68532 0.8183 1.3138 1.7393l1.1426 1.6744h1.8869c1.0378 8e-4 1.9918 0.029 2.12 0.063 0.49272 0.1303 0.21324 0.6629-1.4022 2.6723l-0.76278 0.9488 0.17412 0.6858c0.0958 0.3772 0.33232 1.1837 0.52567 1.7924 0.40032 1.2601 0.43892 1.6617 0.16786 1.7466-0.22696 0.071-0.40574 0.019-2.4008-0.6993l-1.6002-0.5761-0.705 0.4882c-2.1249 1.4711-2.5964 1.7651-2.8314 1.7651-0.19259 0-0.25933-0.057-0.26923-0.2299z" fill="#ffd42a" stroke-width=".10288"/>
<path d="m41.037 1088.5c-0.14089-0.096-0.66854-0.5096-1.1726-0.9194-0.50401-0.4098-0.97432-0.7451-1.0451-0.7451s-0.68405 0.1621-1.3628 0.3602c-1.2255 0.3577-1.7002 0.3856-1.7002 0.1 0-0.082 0.11942-0.4604 0.26537-0.8409 0.35813-0.9338 0.66701-1.8394 0.66701-1.9557 0-0.052-0.34965-0.6345-0.77698-1.2937-0.42735-0.6591-0.77699-1.2564-0.77699-1.3272 0-0.2218 0.25445-0.2438 1.728-0.1489 1.6531 0.1064 1.3484 0.2576 2.5502-1.2652 0.74842-0.9483 0.96581-1.1114 1.1498-0.8625 0.063 0.085 0.27155 0.755 0.46349 1.4884l0.34898 1.3336 1.205 0.4308c1.3746 0.4914 1.7748 0.6754 1.7748 0.8161 0 0.054-0.19813 0.2363-0.44029 0.4042-0.24216 0.168-0.49335 0.3491-0.55817 0.4026-0.0648 0.053-0.44362 0.3032-0.84172 0.5549l-0.72382 0.4575-0.0717 1.4136c-0.0394 0.7775-0.095 1.4941-0.12356 1.5924-0.0654 0.2253-0.23231 0.2266-0.55878 0.01z" fill="#ffd42a" stroke-width=".10288"/>
<g transform="matrix(.78571 0 0 .77551 -95.429 755.44)">
<path d="m141.25 428.07-4.8962 10.697 9.9097 21.675-0.76357 0.18276 9.0312-2.7988c-0.0856-0.14011-13.148-29.405-13.281-29.756z" fill="#5bd16a"/>
<path d="m158.29 443.43c1.4546 3.1743 5.2265 11.712 5.1914 11.74l0.0703-0.0215 3.1562-1.0703c0.61315-0.22772 0.75541-0.65655 0.35743-1.1504z" fill="#ab63be"/>
<path d="m132.41 447.21-3.7949 8.4356 3.8848 8.998 6.8808-2.1328z" fill="#ffc331"/>
<path d="m124.03 465.66c0.11467-0.57283 4.59-10.013 4.59-10.013l3.8848 8.998c-0.0841 0.0443-1.6e-4 4.5e-4 -3.4721 1.0873-1.8484 0.57861 0 0-3.594 1.0922-1.1608 0.29252-1.5571-0.50983-1.4087-1.1642z" fill="#ff575a" stroke-width=".1318"/>
<path d="m132.41 447.22c-5e-3 -0.35687 3.9356-8.4522 3.9356-8.4522l9.9097 21.675-6.8702 2.0848z" fill="#ffe91d" stroke-width=".1318"/>
<path d="m154.53 457.82c-0.0856-0.14011-13.146-29.405-13.28-29.756l0.81871-1.4247c0.16486-0.19926 0.54378-0.19146 0.76635 0.0515l15.456 16.731c1.4537 3.1721 5.2289 11.714 5.1938 11.743l-8.9553 2.655z" fill="#58c2da" stroke-width=".1318"/>
</g>
<path d="m25.178 1088.3c-0.0063-0.098-0.0083-0.7173-0.0047-1.3756l0.0063-1.1967-0.33198-0.2315c-0.93441-0.6514-1.7365-1.3556-1.7083-1.4998 0.02114-0.108 0.44048-0.2742 1.3146-0.5208l1.2836-0.3621 0.42506-1.2249c0.28114-0.8101 0.48078-1.235 0.5896-1.2549 0.10956-0.02 0.40294 0.326 0.87817 1.0356l0.71364 1.0657 1.3219 0.041c0.72704 0.022 1.3708 0.089 1.4305 0.1477 0.0757 0.075-0.10554 0.3986-0.59914 1.0707-0.38926 0.53-0.74555 1.0239-0.79176 1.0977-0.08356 0.1333-0.0071 0.4983 0.36507 1.7377 0.36456 1.2147 0.33783 1.2272-1.3529 0.6299l-1.1506-0.4064-1.0044 0.7129c-1.0196 0.7237-1.3646 0.8568-1.3849 0.5342z" fill="#ffd42a" stroke-width=".10288"/>
<path d="m16.479 1086.2c-0.11248-0.01-0.21844 0.03-0.2832 0.1074l-0.64453 1.1055-2.8887 6.2089s-4.0549 8.3639-4.0508 8.6407l-2.9824 6.541s-3.5154 7.3214-3.6055 7.7656c-0.05439 0.2366-0.01051 0.4948 0.13867 0.6836 0.42957-1.1099 3.4707-7.4492 3.4707-7.4492l2.9824-6.541c-0.0041-0.2768 4.0508-8.6407 4.0508-8.6407l2.8887-6.2089 0.64258-1.1055c0.06477-0.077 0.17268-0.1134 0.28516-0.1074 0.11248 0.01 0.22897 0.054 0.31641 0.1484l12.145 12.975 6.7344 7.1934c0.36342-0.1863 0.44076-0.4825 0.16016-0.8262l-6.8965-7.3672-12.145-12.975c-0.08744-0.094-0.20588-0.1427-0.31836-0.1484z" fill="#fff" opacity=".2"/>
<path d="m39.201 1090.9c-0.26293 0.015-0.48922 0.4936-1.0117 2.0332-0.32802 0.9665-0.62927 1.7926-0.66797 1.8359-0.0387 0.043-0.86325 0.3026-1.834 0.5762-1.9883 0.5603-2.209 0.6528-2.209 0.9238 0 0.1009 0.18947 0.3134 0.51367 0.5996 0.3175-0.1225 0.78497-0.2663 1.6973-0.5234 0.97073-0.2736 1.7972-0.5329 1.8359-0.5762 0.0387-0.043 0.338-0.8694 0.66602-1.8359 0.59714-1.7596 0.80869-2.1349 1.1289-2.0137 0.0941 0.036 0.68406 0.8193 1.3125 1.7402l1.1426 1.6739h1.8867c0.96326 7e-4 1.7432 0.028 1.9688 0.059 0.41158-0.6337 0.4513-0.9161 0.14844-0.9961-0.1282-0.034-1.0814-0.062-2.1191-0.062h-1.8867l-1.1426-1.6739c-0.62844-0.9209-1.2204-1.7046-1.3144-1.7402-0.04-0.015-0.0777-0.022-0.11524-0.019zm4.6094 7.8789-0.19336 0.2402 0.17383 0.6856c0.0958 0.3771 0.33399 1.1843 0.52734 1.7929 0.0892 0.2809 0.15317 0.5055 0.20703 0.7071 0.20793-0.125 0.15958-0.5407-0.21094-1.7071-0.18535-0.5834-0.40121-1.3241-0.5039-1.7187zm-7.123 1.0918-8e-3 0.9492c-0.01 1.0676-0.0109 2.0454-4e-3 2.1719 3.2e-4 0.01 4e-3 0.01 4e-3 0.012 5.3e-4 -0.405-1e-3 -0.6018 4e-3 -1.1836l0.0176-1.9395z" fill="#fff" opacity=".2" stroke-width=".10288"/>
<path d="m40.41 1079.5c-0.17385-0.015-0.43674 0.2536-0.99805 0.9649-1.2018 1.5228-0.89573 1.372-2.5488 1.2656-1.4736-0.095-1.7285-0.073-1.7285 0.1484 0 0.05 0.20318 0.3978 0.45703 0.8106 0.25732-0.012 0.61082 0 1.2734 0.041 1.6531 0.1064 1.349 0.2571 2.5508-1.2656 0.74842-0.9484 0.9664-1.1102 1.1504-0.8614 0.063 0.085 0.27095 0.7549 0.46289 1.4883l0.34961 1.3321 1.2051 0.4316c0.52353 0.1871 0.7958 0.2976 1.0684 0.4102 0.0976-0.07 0.14781-0.1105 0.26172-0.1895 0.24216-0.1679 0.44141-0.3499 0.44141-0.4043 0-0.1407-0.40079-0.325-1.7754-0.8164l-1.2051-0.4316-0.34961-1.3321c-0.19194-0.7334-0.39989-1.4031-0.46289-1.4883-0.046-0.062-0.0944-0.099-0.15234-0.1035zm-3.918 5.668c-0.12218 0.3586-0.29054 0.8174-0.47071 1.2871-0.14593 0.3806-0.26562 0.7599-0.26562 0.8418 0 0.1123 0.10018 0.1614 0.26367 0.1758 3e-3 -0.01 3e-3 -0.01 6e-3 -0.018 0.35813-0.9337 0.66602-1.8388 0.66602-1.9551 0-0.013-0.15775-0.2564-0.19922-0.332z" fill="#fff" opacity=".2" stroke-width=".10288"/>
<path d="m26.752 1080.6c-0.10881 0.02-0.30871 0.4438-0.58984 1.2539l-0.42383 1.2246-1.2852 0.3633c-0.8741 0.2466-1.2933 0.4115-1.3145 0.5195-0.01603 0.082 0.26872 0.3594 0.66211 0.6914 0.1932-0.065 0.36243-0.128 0.65625-0.2109l1.2832-0.3633 0.42578-1.2246c0.28114-0.8101 0.48103-1.234 0.58984-1.2539 0.10956-0.02 0.40172 0.3255 0.87695 1.0351l0.71484 1.0645 1.3203 0.041c0.3525 0.011 0.68123 0.033 0.9375 0.059 0.38335-0.5367 0.55797-0.8432 0.49023-0.9102-0.0597-0.059-0.70264-0.1261-1.4297-0.1484l-1.3223-0.041-0.71289-1.0645c-0.47523-0.7096-0.76935-1.0552-0.87891-1.0351zm3.0703 5.2988c-0.01865 0.027-0.10664 0.1476-0.11328 0.1582-0.0836 0.1334-0.0068 0.4989 0.36524 1.7383h2e-3c0.26675-0.029 0.19872-0.3222-6e-3 -1.0039-0.13001-0.4331-0.18442-0.6495-0.24805-0.8965zm-4.6465 0.791-2e-3 0.2012c-0.0023 0.4236-2.1e-5 0.622 2e-3 0.8848l0.0059-1.0821z" fill="#fff" opacity=".2" stroke-width=".10288"/>
</g>
</svg>
