<?xml version="1.0" encoding="UTF-8" standalone="no"?>
<!-- Created with Inkscape (http://www.inkscape.org/) -->

<svg
   xmlns:dc="http://purl.org/dc/elements/1.1/"
   xmlns:cc="http://creativecommons.org/ns#"
   xmlns:rdf="http://www.w3.org/1999/02/22-rdf-syntax-ns#"
   xmlns:svg="http://www.w3.org/2000/svg"
   xmlns="http://www.w3.org/2000/svg"
   xmlns:sodipodi="http://sodipodi.sourceforge.net/DTD/sodipodi-0.dtd"
   xmlns:inkscape="http://www.inkscape.org/namespaces/inkscape"
   width="64"
   height="64"
   viewBox="0 0 64 64.000001"
   version="1.1"
   id="svg8"
   sodipodi:docname="fest.svg"
   inkscape:version="0.92.2 5c3e80d, 2017-08-06">
  <defs
     id="defs2" />
  <sodipodi:namedview
     id="base"
     pagecolor="#ffffff"
     bordercolor="#666666"
     borderopacity="1.0"
     inkscape:pageopacity="0.0"
     inkscape:pageshadow="2"
     inkscape:zoom="5.6"
     inkscape:cx="-5.4364284"
     inkscape:cy="16.057029"
     inkscape:document-units="px"
     inkscape:current-layer="layer1"
     showgrid="false"
     inkscape:window-width="1366"
     inkscape:window-height="713"
     inkscape:window-x="0"
     inkscape:window-y="27"
     inkscape:window-maximized="1"
     units="px" />
  <metadata
     id="metadata5">
    <rdf:RDF>
      <cc:Work
         rdf:about="">
        <dc:format>image/svg+xml</dc:format>
        <dc:type
           rdf:resource="http://purl.org/dc/dcmitype/StillImage" />
        <dc:title />
      </cc:Work>
    </rdf:RDF>
  </metadata>
  <g
     inkscape:label="Layer 1"
     inkscape:groupmode="layer"
     id="layer1"
     transform="translate(0,-1058.5197)">
    <path
       style="opacity:0.2;fill:#000000;fill-opacity:1;stroke:none;stroke-width:0.1317956px;stroke-linecap:butt;stroke-linejoin:miter;stroke-opacity:1"
       d="m 24.427763,1075.1317 c -0.14316,-0.01 -0.27888,0.04 -0.36131,0.1399 l -0.81894,1.4247 -3.67696,8.0064 c 0,0 -5.1609,10.7861 -5.15568,11.1429 l -3.79516,8.4346 c 0,0 -4.4752296,9.4405 -4.5898996,10.0133 -0.14847,0.6544 0.24792,1.4568 1.40867,1.1643 3.5939896,-1.0922 1.74567,-0.5136 3.5940396,-1.0922 3.47191,-1.0869 3.38788,-1.0426 3.47197,-1.0869 l 6.88214,-2.1332 0.003,0.01 5.59708,-1.7435 9.54032,-2.9574 9.0263,-2.6757 3.15702,-1.0698 c 0.61315,-0.2277 0.75389,-0.6568 0.3559,-1.1507 l -8.77779,-9.5016 -15.45622,-16.7312 c -0.11129,-0.1214 -0.26167,-0.184 -0.40483,-0.1914 z"
       id="path847-1"
       inkscape:connector-curvature="0" />
    <path
       inkscape:connector-curvature="0"
       style="fill:#f2f2f2;fill-opacity:1;stroke:none;stroke-width:0.1317956px;stroke-linecap:butt;stroke-linejoin:miter;stroke-opacity:1"
       d="m 6.2428234,1114.2314 c 0.11275,0.1228 0.26681,0.2154 0.46484,0.2597 -0.19807,-0.044 -0.35203,-0.1368 -0.46484,-0.2597 z"
       id="path847-0" />
    <path
       style="opacity:0.2;fill:#000000;fill-opacity:1;stroke-width:0.13179561"
       d="m 50.132963,1096.7639 c -0.009,-0.163 -0.007,-1.4228 0.006,-2.7994 l 0.0223,-2.5031 -1.23955,-0.8833 c -1.81926,-1.2964 -2.85905,-2.1993 -2.85905,-2.4827 0,-0.3496 0.28107,-0.4686 2.81169,-1.1911 1.23549,-0.3528 2.2867,-0.687 2.33602,-0.7427 0.0493,-0.056 0.43124,-1.1211 0.84872,-2.3675 0.76,-2.2689 1.02765,-2.7532 1.4352,-2.5969 0.1198,0.046 0.87223,1.0551 1.67207,2.2427 l 1.45424,2.1592 h 2.40149 c 1.32083,0 2.53501,0.038 2.69817,0.081 0.62711,0.1679 0.2714,0.8547 -1.78466,3.4459 l -0.97083,1.2235 0.22161,0.8843 c 0.12189,0.4863 0.42296,1.5264 0.66904,2.3112 0.50951,1.625 0.55864,2.1429 0.21365,2.2523 -0.28886,0.092 -0.51641,0.024 -3.05552,-0.9017 l -2.03668,-0.7429 -0.89728,0.6294 c -2.70443,1.8971 -3.30459,2.2761 -3.60357,2.2761 -0.24511,0 -0.33006,-0.073 -0.34266,-0.2964 z"
       id="path857-2"
       inkscape:connector-curvature="0" />
    <path
       style="opacity:0.2;fill:#000000;fill-opacity:1;stroke-width:0.13179561"
       d="m 55.683953,1078.1287 c -0.17931,-0.1237 -0.85087,-0.6572 -1.49235,-1.1857 -0.64148,-0.5284 -1.24006,-0.9607 -1.33017,-0.9607 -0.0901,0 -0.87061,0.209 -1.73445,0.4644 -1.5598,0.4613 -2.16394,0.4972 -2.16394,0.1289 0,-0.1057 0.15199,-0.5936 0.33775,-1.0843 0.4558,-1.2041 0.84893,-2.3719 0.84893,-2.5218 0,-0.067 -0.44501,-0.8183 -0.9889,-1.6683 -0.5439,-0.8499 -0.9889,-1.6201 -0.9889,-1.7115 0,-0.286 0.32385,-0.3142 2.19935,-0.1919 2.10397,0.1372 1.71616,0.3321 3.24567,-1.6315 0.95255,-1.2228 1.22923,-1.4331 1.46339,-1.1122 0.0802,0.1098 0.34562,0.9736 0.58991,1.9194 l 0.44415,1.7196 1.53365,0.5555 c 1.7495,0.6336 2.25884,0.8709 2.25884,1.0523 0,0.07 -0.25217,0.3047 -0.56037,0.5213 -0.30821,0.2165 -0.6279,0.4502 -0.71041,0.5192 -0.0825,0.069 -0.5646,0.3909 -1.07128,0.7154 l -0.92124,0.59 -0.0912,1.8228 c -0.0502,1.0026 -0.12092,1.9266 -0.15726,2.0534 -0.0833,0.2906 -0.29567,0.2923 -0.71118,0.01 z"
       id="path855-7"
       inkscape:connector-curvature="0" />
    <path
       style="opacity:0.2;fill:#000000;fill-opacity:1;stroke-width:0.13179561"
       d="m 35.499663,1077.8595 c -0.008,-0.1268 -0.0106,-0.925 -0.006,-1.7737 l 0.008,-1.5433 -0.42253,-0.2984 c -1.18926,-0.84 -2.21011,-1.7481 -2.17427,-1.9341 0.0269,-0.1392 0.56062,-0.3535 1.67312,-0.6715 l 1.63371,-0.4669 0.54099,-1.5795 c 0.35781,-1.0446 0.61191,-1.5926 0.7504,-1.6182 0.13944,-0.026 0.51284,0.4203 1.11768,1.3354 l 0.90827,1.3741 1.68242,0.052 c 0.92533,0.029 1.74462,0.1146 1.82064,0.1905 0.0964,0.096 -0.13433,0.5141 -0.76255,1.3807 -0.49543,0.6834 -0.94889,1.3204 -1.0077,1.4154 -0.10635,0.172 -0.009,0.6426 0.46464,2.2408 0.46399,1.5664 0.42997,1.5825 -1.72184,0.8124 l -1.46435,-0.5241 -1.27837,0.9193 c -1.29769,0.9332 -1.73675,1.1047 -1.76258,0.6887 z"
       id="path830-0"
       inkscape:connector-curvature="0" />
    <g
       transform="translate(-118,647.62997)"
       id="g1574">
      <path
         sodipodi:nodetypes="cccccc"
         inkscape:connector-curvature="0"
         id="path1551"
         d="m 141.24672,428.06618 -4.89616,10.69713 9.90973,21.67479 -0.76357,0.18276 9.03125,-2.79883 c -0.0856,-0.14011 -13.14779,-29.40512 -13.28125,-29.75585 z"
         style="fill:#5bd16a;fill-opacity:1;stroke:none;stroke-width:0.1317956px;stroke-linecap:butt;stroke-linejoin:miter;stroke-opacity:1" />
      <path
         inkscape:connector-curvature="0"
         id="path1547"
         d="m 158.29164,443.4275 c 1.45463,3.17427 5.22652,11.71185 5.19141,11.74024 l 0.0703,-0.0215 3.15625,-1.07031 c 0.61315,-0.22772 0.75541,-0.65655 0.35743,-1.15039 z"
         style="fill:#ab63be;fill-opacity:1;stroke:none;stroke-width:0.1317956px;stroke-linecap:butt;stroke-linejoin:miter;stroke-opacity:1" />
      <path
         inkscape:connector-curvature="0"
         id="path1545"
         d="m 132.41469,447.21461 -3.79492,8.43555 3.88477,8.99805 6.88085,-2.13282 z"
         style="fill:#ffc331;fill-opacity:1;stroke:none;stroke-width:0.1317956px;stroke-linecap:butt;stroke-linejoin:miter;stroke-opacity:1" />
      <path
         sodipodi:nodetypes="cccccc"
         inkscape:connector-curvature="0"
         id="path863"
         d="m 124.02981,465.66353 c 0.11467,-0.57283 4.58996,-10.01337 4.58996,-10.01337 l 3.88477,8.99805 c -0.0841,0.0443 -1.6e-4,4.5e-4 -3.47207,1.08728 -1.84837,0.57861 0,0 -3.59399,1.09224 -1.16075,0.29252 -1.55714,-0.50983 -1.40867,-1.1642 z"
         style="fill:#ff575a;fill-opacity:1;stroke-width:0.13179561" />
      <path
         sodipodi:nodetypes="ccccc"
         inkscape:connector-curvature="0"
         id="path861"
         d="m 132.41495,447.21553 c -0.005,-0.35687 3.93561,-8.45222 3.93561,-8.45222 l 9.90973,21.67479 -6.87022,2.08479 z"
         style="fill:#ffe91d;fill-opacity:1;stroke-width:0.13179561" />
      <path
         inkscape:connector-curvature="0"
         id="path859"
         d="m 154.52736,457.82193 c -0.0856,-0.14011 -13.14627,-29.40485 -13.27973,-29.75558 l 0.81871,-1.42472 c 0.16486,-0.19926 0.54378,-0.19146 0.76635,0.0515 l 15.45615,16.73117 c 1.45373,3.17213 5.22892,11.7143 5.1938,11.7427 l -8.95528,2.65503 z"
         style="fill:#58c2da;fill-opacity:1;stroke-width:0.13179561" />
    </g>
    <path
       style="fill:#ffd42a;stroke-width:0.13179561"
       d="m 50.132963,1095.7639 c -0.009,-0.163 -0.007,-1.4228 0.006,-2.7994 l 0.0223,-2.5031 -1.23955,-0.8833 c -1.81926,-1.2964 -2.85905,-2.1993 -2.85905,-2.4827 0,-0.3496 0.28107,-0.4686 2.81169,-1.1911 1.23549,-0.3528 2.2867,-0.687 2.33602,-0.7427 0.0493,-0.056 0.43124,-1.1211 0.84872,-2.3675 0.76,-2.2689 1.02765,-2.7532 1.4352,-2.5969 0.1198,0.046 0.87223,1.0551 1.67207,2.2427 l 1.45424,2.1592 h 2.40149 c 1.32083,0 2.53501,0.038 2.69817,0.081 0.62711,0.1679 0.2714,0.8547 -1.78466,3.4459 l -0.97083,1.2235 0.22161,0.8843 c 0.12189,0.4863 0.42296,1.5264 0.66904,2.3112 0.50951,1.625 0.55864,2.1429 0.21365,2.2523 -0.28886,0.092 -0.51641,0.024 -3.05552,-0.9017 l -2.03668,-0.7429 -0.89728,0.6294 c -2.70443,1.8971 -3.30459,2.2761 -3.60357,2.2761 -0.24511,0 -0.33006,-0.073 -0.34266,-0.2964 z"
       id="path857"
       inkscape:connector-curvature="0" />
    <path
       style="fill:#ffd42a;stroke-width:0.13179561"
       d="m 55.683953,1077.1287 c -0.17931,-0.1237 -0.85087,-0.6572 -1.49235,-1.1857 -0.64148,-0.5284 -1.24006,-0.9607 -1.33017,-0.9607 -0.0901,0 -0.87061,0.209 -1.73445,0.4644 -1.5598,0.4613 -2.16394,0.4972 -2.16394,0.1289 0,-0.1057 0.15199,-0.5936 0.33775,-1.0843 0.4558,-1.2041 0.84893,-2.3719 0.84893,-2.5218 0,-0.067 -0.44501,-0.8183 -0.9889,-1.6683 -0.5439,-0.8499 -0.9889,-1.6201 -0.9889,-1.7115 0,-0.286 0.32385,-0.3142 2.19935,-0.1919 2.10397,0.1372 1.71616,0.3321 3.24567,-1.6315 0.95255,-1.2228 1.22923,-1.4331 1.46339,-1.1122 0.0802,0.1098 0.34562,0.9736 0.58991,1.9194 l 0.44415,1.7196 1.53365,0.5555 c 1.7495,0.6336 2.25884,0.8709 2.25884,1.0523 0,0.07 -0.25217,0.3047 -0.56037,0.5213 -0.30821,0.2165 -0.6279,0.4502 -0.71041,0.5192 -0.0825,0.069 -0.5646,0.3909 -1.07128,0.7154 l -0.92124,0.59 -0.0912,1.8228 c -0.0502,1.0026 -0.12092,1.9266 -0.15726,2.0534 -0.0833,0.2906 -0.29567,0.2923 -0.71118,0.01 z"
       id="path855"
       inkscape:connector-curvature="0" />
    <path
       style="fill:#ffd42a;stroke-width:0.13179561"
       d="m 35.499663,1076.8595 c -0.008,-0.1268 -0.0106,-0.925 -0.006,-1.7737 l 0.008,-1.5433 -0.42253,-0.2984 c -1.18926,-0.84 -2.21011,-1.7481 -2.17427,-1.9341 0.0269,-0.1392 0.56062,-0.3535 1.67312,-0.6715 l 1.63371,-0.4669 0.54099,-1.5795 c 0.35781,-1.0446 0.61191,-1.5926 0.7504,-1.6182 0.13944,-0.026 0.51284,0.4203 1.11768,1.3354 l 0.90827,1.3741 1.68242,0.052 c 0.92533,0.029 1.74462,0.1146 1.82064,0.1905 0.0964,0.096 -0.13433,0.5141 -0.76255,1.3807 -0.49543,0.6834 -0.94889,1.3204 -1.0077,1.4154 -0.10635,0.172 -0.009,0.6426 0.46464,2.2408 0.46399,1.5664 0.42997,1.5825 -1.72184,0.8124 l -1.46435,-0.5241 -1.27837,0.9193 c -1.29769,0.9332 -1.73675,1.1047 -1.76258,0.6887 z"
       id="path830"
       inkscape:connector-curvature="0" />
    <path
       style="opacity:0.2;fill:#f7f7f7;fill-opacity:1;stroke:none;stroke-width:0.1317956px;stroke-linecap:butt;stroke-linejoin:miter;stroke-opacity:1"
       d="m 24.427733,1074.1311 c -0.14316,-0.01 -0.27889,0.041 -0.36132,0.1406 l -0.81836,1.4239 -3.67774,8.0078 c 0,0 -5.16147,10.7857 -5.15625,11.1426 l -3.79492,8.4336 c 0,0 -4.4751796,9.4408 -4.5898396,10.0136 -0.0588,0.2593 -0.0283,0.5392 0.0976,0.7676 0.37329,-1.0875 4.4921896,-9.7812 4.4921896,-9.7812 l 3.79492,-8.4336 c -0.005,-0.3569 5.15625,-11.1426 5.15625,-11.1426 l 3.67774,-8.0078 0.81836,-1.4239 c 0.0824,-0.1 0.21816,-0.1476 0.36132,-0.1406 0.14316,0.01 0.29301,0.07 0.4043,0.1914 l 15.45703,16.7305 8.74805,9.4707 c 0.31243,-0.2415 0.33932,-0.5841 0.0293,-0.9688 l -8.77735,-9.5019 -15.45703,-16.7305 c -0.11129,-0.1214 -0.26114,-0.184 -0.4043,-0.1914 z"
       id="path847-3"
       inkscape:connector-curvature="0" />
    <path
       style="opacity:0.2;fill:#ffffff;fill-opacity:1;stroke-width:0.13179561"
       d="m 53.347663,1080.1702 c -0.33465,0.019 -0.62407,0.6377 -1.28907,2.623 -0.41748,1.2463 -0.79835,2.3134 -0.84765,2.3692 -0.0493,0.056 -1.10045,0.3894 -2.33594,0.7422 -2.53062,0.7225 -2.8125,0.8418 -2.8125,1.1914 0,0.1016 0.17833,0.3062 0.43359,0.5566 0.37856,-0.166 1.07418,-0.3755 2.37891,-0.748 1.23549,-0.3528 2.28662,-0.6865 2.33594,-0.7422 0.0493,-0.056 0.43017,-1.1229 0.84765,-2.3692 0.76,-2.2689 1.028,-2.7519 1.43555,-2.5957 0.1198,0.046 0.87204,1.0546 1.67188,2.2422 l 1.45507,2.1602 h 2.40039 c 1.31522,10e-4 2.52007,0.037 2.69141,0.08 0.35909,-0.6251 0.34984,-0.9085 0.008,-1 -0.16316,-0.044 -1.37839,-0.079 -2.69922,-0.08 h -2.40039 l -1.45508,-2.1602 c -0.79984,-1.1876 -1.55207,-2.1962 -1.67187,-2.2422 -0.0509,-0.02 -0.0987,-0.03 -0.14649,-0.027 z m 5.80664,9.9433 -0.18946,0.2383 0.22071,0.8848 c 0.12189,0.4863 0.42384,1.5257 0.66992,2.3105 0.15837,0.5051 0.25672,0.8734 0.32812,1.1856 0.20841,-0.199 0.11428,-0.7746 -0.32812,-2.1856 -0.24608,-0.7848 -0.54803,-1.8242 -0.66992,-2.3105 z m -9.00196,1.3418 -0.0137,1.5098 c -0.013,1.3767 -0.0149,2.6358 -0.006,2.7988 2.7e-4,0.01 0.002,0.01 0.002,0.012 -7.9e-4,-0.5274 -0.005,-0.92 0.004,-1.8105 l 0.0234,-2.5039 z"
       id="path857-6"
       inkscape:connector-curvature="0" />
    <path
       style="opacity:0.2;fill:#ffffff;fill-opacity:1;stroke-width:0.13179561"
       d="m 54.886723,1065.5198 c -0.22126,-0.019 -0.55512,0.3289 -1.26953,1.2461 -1.52951,1.9636 -1.14213,1.77 -3.2461,1.6328 -1.8755,-0.1223 -2.19922,-0.095 -2.19922,0.1914 0,0.053 0.16943,0.3586 0.4004,0.75 0.31584,-0.027 0.86382,0 1.79882,0.059 2.10397,0.1372 1.71659,0.3308 3.2461,-1.6328 0.95255,-1.2229 1.22873,-1.4323 1.46289,-1.1113 0.0802,0.1098 0.34555,0.9721 0.58984,1.9179 l 0.44531,1.7207 1.53321,0.5547 c 0.79346,0.2874 1.26769,0.4767 1.61914,0.6328 0.0342,-0.024 0.0439,-0.035 0.0781,-0.059 0.3082,-0.2165 0.56054,-0.4514 0.56054,-0.5215 0,-0.1814 -0.50831,-0.4191 -2.25781,-1.0527 l -1.53321,-0.5547 -0.44531,-1.7207 c -0.24429,-0.9458 -0.50964,-1.8081 -0.58984,-1.9179 -0.0585,-0.08 -0.11961,-0.1285 -0.19336,-0.1348 z m -4.92578,7.0957 c -0.15511,0.4845 -0.37462,1.1207 -0.66016,1.875 -0.18576,0.4907 -0.33789,0.9803 -0.33789,1.0859 0,0.1225 0.0977,0.1826 0.24414,0.2149 0.0438,-0.1275 0.0423,-0.1649 0.0937,-0.3008 0.4558,-1.2041 0.84961,-2.3716 0.84961,-2.5215 0,-0.022 -0.10665,-0.2062 -0.18945,-0.3535 z"
       id="path855-0"
       inkscape:connector-curvature="0" />
    <path
       style="opacity:0.2;fill:#ffffff;fill-opacity:1;stroke-width:0.13179561"
       d="m 37.503913,1066.9749 c -0.13849,0.026 -0.39415,0.5725 -0.75196,1.6172 l -0.54101,1.58 -1.63282,0.4668 c -1.1125,0.318 -1.64692,0.5326 -1.67382,0.6719 -0.0171,0.089 0.21801,0.3477 0.58593,0.6797 0.27114,-0.1018 0.60154,-0.2125 1.08789,-0.3516 l 1.63282,-0.4668 0.54101,-1.58 c 0.35781,-1.0447 0.61347,-1.5916 0.75196,-1.6172 0.13944,-0.026 0.51234,0.4189 1.11718,1.3339 l 0.90821,1.375 1.68164,0.053 c 0.57266,0.018 1.02875,0.058 1.36914,0.1036 0.33719,-0.5026 0.52459,-0.8408 0.45117,-0.9141 -0.076,-0.076 -0.89498,-0.1607 -1.82031,-0.1895 l -1.68164,-0.053 -0.90821,-1.3749 c -0.60484,-0.9151 -0.97774,-1.3598 -1.11718,-1.334 z m 3.84961,6.6172 c -0.0118,0.017 -0.0864,0.1221 -0.0918,0.1308 -0.10635,0.172 -0.009,0.6421 0.46484,2.2402 0.0372,0.1256 0.0443,0.1811 0.0742,0.2872 0.26442,-0.079 0.16916,-0.4655 -0.0742,-1.2872 -0.19631,-0.6623 -0.29373,-1.037 -0.37305,-1.371 z m -5.85743,0.9472 -0.002,0.5469 c -0.002,0.2898 0.002,0.3522 0.002,0.6055 l 0.006,-1.1485 z"
       id="path830-6"
       inkscape:connector-curvature="0" />
  </g>
</svg>
