<?xml version="1.0" encoding="UTF-8"?>
<svg version="1.1" viewBox="0 0 16 16" xmlns="http://www.w3.org/2000/svg" xmlns:cc="http://creativecommons.org/ns#" xmlns:dc="http://purl.org/dc/elements/1.1/" xmlns:rdf="http://www.w3.org/1999/02/22-rdf-syntax-ns#">
<metadata>
<rdf:RDF>
<cc:Work rdf:about="">
<dc:format>image/svg+xml</dc:format>
<dc:type rdf:resource="http://purl.org/dc/dcmitype/StillImage"/>
<dc:title/>
</cc:Work>
</rdf:RDF>
</metadata>
<g transform="translate(0 -1106.5)">
<path d="m2.9455 1113.3 2.9771 8.2876c0.0906 0.2417 0.27816 0.2124 0.51479 0.029l6.2619-5.3805z" fill="#eee"/>
<path transform="matrix(.157 .082832 -.083605 .15555 4.7124 1089.9)" d="m113.96 112.74-7.3256-5.2016-8.4379 3.0857 2.6833-8.5744-5.5422-7.0714 8.9839-0.09764 5.0127-7.4561 2.869 8.5141 8.6402 2.4633-7.2108 5.3596z" fill="#ffd42a" style="paint-order:fill markers stroke"/>
<g transform="matrix(.26665 0 0 .26301 -32.005 1032.9)">
<path d="m154.2 312.95 0.01 5.5566c-5.6732 3.4666-12.872 0.81995-19.852-3.3495l0.99261 2.7968 0.0391 0.11132 1.0527 2.9531c8.983 7.6552 18.224 1.2007 27.318-2.1777v-2.9746z" fill="#58c2da"/>
<path d="m161.32 322.57c-8.0984 4.8402-15.41 10.296-22.799 4.3446l1.3969 3.9093c4.5026 4.2122 11.55-0.68204 17.035-4.4492z" fill="#ffe91d"/>
<path d="m150.94 331.61c-3.2108 2.6578-6.9484 4.1176-9.8359 2.5859l1.0273 2.9024 0.0137 0.0254c0.77416 0.62168 2.0432-0.0739 3.8789-1.2305z" fill="#ff575a"/>
<path d="m131.07 305.9 3.283 9.2618c6.98 4.1695 14.177 6.8181 19.85 3.3515l-0.01-5.5586z" fill="#ab63be"/>
<path d="m163.76 315.87v2.9746c-9.094 3.3785-18.335 9.8329-27.318 2.1777l2.0836 5.8954c7.3897 5.9514 14.699 0.49754 22.797-4.3427h2e-3l6.332-5.5156z" fill="#5bd16a"/>
<path d="m156.95 326.38c-5.4856 3.7674-12.534 8.664-17.037 4.4512l-0.01-2e-3 1.1953 3.373h2e-3c2.8908 1.5334 6.6344 0.0698 9.8476-2.5938z" fill="#ffc331"/>
<path d="m146.02 335.9c-1.8357 1.1566-3.1048 1.8522-3.8789 1.2305l-0.0137-0.0254 0.10742 0.30469c0.33945 0.91892 1.0422 0.80617 1.9297 0.10742z" fill="#ff575a"/>
</g>
<ellipse transform="matrix(.95396 .29994 -.30505 .95234 0 0)" cx="347.48" cy="1060.8" rx="5.1892" ry="1.9" fill="#8a6a6a" style="paint-order:fill markers stroke"/>
<ellipse cx="4.7628" cy="1108.5" rx=".23175" ry=".2355" fill="#d25400" stroke="#d25400" stroke-linecap="round" stroke-width=".499" style="paint-order:fill markers stroke"/>
<ellipse cx="13.87" cy="1110" rx=".30011" ry=".29521" fill="#b0008c" stroke="#b0008c" stroke-linecap="round" stroke-width=".499" style="paint-order:fill markers stroke"/>
<ellipse cx=".69816" cy="1113.6" rx=".17233" ry=".17662" fill="#009cc3" stroke="#009cc3" stroke-linecap="round" stroke-width=".499" style="paint-order:fill markers stroke"/>
<ellipse cx="15.027" cy="1117.4" rx=".21524" ry=".22121" fill="#64b131" stroke="#64b131" stroke-linecap="round" stroke-width=".499" style="paint-order:fill markers stroke"/>
<path d="m5.2615 1112.1a5.1892 1.9 17.407 0 0-2.3268 0.8286 5.1892 1.9 17.407 0 0 0.15778 0.8097l2.831 7.8806c0.0905 0.2417 0.27791 0.212 0.51454 0.028l5.9489-5.1111a5.1892 1.9 17.407 0 0 0.44787-0.4948 5.1892 1.9 17.407 0 0-4.3704-3.3654 5.1892 1.9 17.407 0 0-3.2028-0.5759z" fill="none" stroke="#6a2929" stroke-width=".499"/>
<path transform="matrix(.15076 -.093509 .094381 .14937 -22.773 1106.2)" d="m113.96 112.74-7.3256-5.2016-8.4379 3.0857 2.6833-8.5744-5.5422-7.0714 8.9839-0.09764 5.0127-7.4561 2.869 8.5141 8.6402 2.4633-7.2108 5.3596z" fill="#f2cb2d" style="paint-order:fill markers stroke"/>
<path transform="matrix(.157 .082832 -.083605 .15555 4.7124 1089.9)" d="m113.96 112.74-7.3256-5.2016-8.4379 3.0857 2.6833-8.5744-5.5422-7.0714 8.9839-0.09764 5.0127-7.4561 2.869 8.5141 8.6402 2.4633-7.2108 5.3596z" fill="#f2cb2d" style="paint-order:fill markers stroke"/>
<path transform="matrix(.26523 .021409 -.021107 .26904 -17.504 1081.7)" d="m113.96 112.74-7.3256-5.2016-8.4379 3.0857 2.6833-8.5744-5.5422-7.0714 8.9839-0.09764 5.0127-7.4561 2.869 8.5141 8.6402 2.4633-7.2108 5.3596z" fill="#f2cb2d" style="paint-order:fill markers stroke"/>
<path d="m9.65 1107.6-1.4869 1.8987-2.3849-0.1661 1.3207 2.0211-0.89268 2.2494 2.3032-0.6495 1.8331 1.5562 0.10272-2.4225 2.0256-1.2875-2.2396-0.8477z" fill="none" stroke="#d2a800" stroke-linecap="round" stroke-width=".499" style="paint-order:fill markers stroke"/>
<path d="m14.569 1112.5-1.4103 0.7446-1.4186-0.729 0.27889 1.559-1.1381 1.1114 1.5827 0.219 0.7152 1.4159 0.69928-1.4237 1.5802-0.2364-1.1505-1.0988z" fill="none" stroke="#d2a800" stroke-linecap="round" stroke-width=".499" style="paint-order:fill markers stroke"/>
<path d="m1.9616 1109.1-0.052 1.5825-1.3452 0.8547 1.503 0.538 0.4047 1.5317 0.9809-1.25 1.5954 0.092-0.89674-1.3105 0.58128-1.4749-1.5351 0.44z" fill="none" stroke="#d2a800" stroke-linecap="round" stroke-width=".499" style="paint-order:fill markers stroke"/>
<path d="m3.0924 1113.7c1.8386 2.6414 7.7882 3.7054 9.2944 2.7977" fill="none" stroke="#6a2929" stroke-width=".499"/>
</g>
</svg>
