<?xml version="1.0" encoding="UTF-8" standalone="no"?>
<!-- Created with Inkscape (http://www.inkscape.org/) -->

<svg
   xmlns:dc="http://purl.org/dc/elements/1.1/"
   xmlns:cc="http://creativecommons.org/ns#"
   xmlns:rdf="http://www.w3.org/1999/02/22-rdf-syntax-ns#"
   xmlns:svg="http://www.w3.org/2000/svg"
   xmlns="http://www.w3.org/2000/svg"
   xmlns:sodipodi="http://sodipodi.sourceforge.net/DTD/sodipodi-0.dtd"
   xmlns:inkscape="http://www.inkscape.org/namespaces/inkscape"
   width="16"
   height="16"
   viewBox="0 0 16 16.000001"
   version="1.1"
   id="svg8"
   sodipodi:docname="New document 1.2018_02_01_15_19_33.0.svg"
   inkscape:version="0.92.2 5c3e80d, 2017-08-06">
  <defs
     id="defs2" />
  <sodipodi:namedview
     id="base"
     pagecolor="#ffffff"
     bordercolor="#666666"
     borderopacity="1.0"
     inkscape:pageopacity="0.0"
     inkscape:pageshadow="2"
     inkscape:zoom="5.6"
     inkscape:cx="-14.007778"
     inkscape:cy="5.3618562"
     inkscape:document-units="px"
     inkscape:current-layer="layer1"
     showgrid="false"
     inkscape:window-width="1366"
     inkscape:window-height="713"
     inkscape:window-x="0"
     inkscape:window-y="27"
     inkscape:window-maximized="1"
     units="px" />
  <metadata
     id="metadata5">
    <rdf:RDF>
      <cc:Work
         rdf:about="">
        <dc:format>image/svg+xml</dc:format>
        <dc:type
           rdf:resource="http://purl.org/dc/dcmitype/StillImage" />
        <dc:title></dc:title>
      </cc:Work>
    </rdf:RDF>
  </metadata>
  <g
     inkscape:label="Layer 1"
     inkscape:groupmode="layer"
     id="layer1"
     transform="translate(0,-1106.5197)">
    <path
       style="fill:#eeeeee;fill-opacity:1;stroke:none;stroke-width:0.49900001;stroke-linecap:butt;stroke-linejoin:miter;stroke-miterlimit:4;stroke-dasharray:none;stroke-opacity:1"
       d="m 2.9455427,1113.3199 2.97707,8.2876 c 0.0906,0.2417 0.27816,0.2124 0.51479,0.029 l 6.2618903,-5.3805 z"
       id="path815-4-7-7"
       inkscape:connector-curvature="0"
       sodipodi:nodetypes="ccccc" />
    <path
       sodipodi:type="star"
       style="opacity:1;fill:#ffd42a;fill-opacity:1;fill-rule:nonzero;stroke:none;stroke-width:2.81847668;stroke-linecap:round;stroke-miterlimit:4;stroke-dasharray:none;stroke-opacity:1;paint-order:fill markers stroke"
       id="path822-9-6-9"
       sodipodi:sides="5"
       sodipodi:cx="107.53423"
       sodipodi:cy="100.83036"
       sodipodi:r1="13.529488"
       sodipodi:r2="6.7647443"
       sodipodi:arg1="1.0759089"
       sodipodi:arg2="1.7042274"
       inkscape:flatsided="false"
       inkscape:rounded="0"
       inkscape:randomized="0"
       d="m 113.95983,112.73661 -7.32555,-5.20164 -8.437945,3.08573 2.683335,-8.5744 -5.54217,-7.071428 8.98394,-0.09764 5.0127,-7.456103 2.86904,8.514058 8.64019,2.463299 -7.21077,5.35961 z"
       inkscape:transform-center-x="-0.0041307002"
       inkscape:transform-center-y="0.22377556"
       transform="matrix(0.1569963,0.08283239,-0.08360491,0.15554562,4.7123727,1089.8798)" />
    <g
       transform="matrix(0.26664757,0,0,0.26300821,-32.004716,1032.8662)"
       id="g1068-5-9-8-5">
      <path
         sodipodi:nodetypes="ccccccccc"
         inkscape:connector-curvature="0"
         id="path1049-6-3-7-9"
         d="m 154.19693,312.95279 0.01,5.55664 c -5.67319,3.46665 -12.87195,0.81995 -19.85198,-3.34952 l 0.99261,2.79679 0.0391,0.11132 1.05273,2.95313 c 8.98304,7.65515 18.22436,1.20073 27.31836,-2.17774 v -2.97461 z"
         style="fill:#58c2da;fill-opacity:1;stroke:none;stroke-width:1;stroke-linecap:butt;stroke-linejoin:miter;stroke-miterlimit:4;stroke-dasharray:none;stroke-opacity:1" />
      <path
         sodipodi:nodetypes="ccccc"
         inkscape:connector-curvature="0"
         id="path1047-2-6-9-2"
         d="m 161.31997,322.57388 c -8.09835,4.84022 -15.40958,10.29601 -22.79924,4.34463 l 1.3969,3.90928 c 4.5026,4.21225 11.54989,-0.68204 17.03515,-4.44922 z"
         style="fill:#ffe91d;fill-opacity:1;stroke:none;stroke-width:1;stroke-linecap:butt;stroke-linejoin:miter;stroke-miterlimit:4;stroke-dasharray:none;stroke-opacity:1" />
      <path
         inkscape:connector-curvature="0"
         id="path815-3-3-9-0-2-2"
         d="m 150.94107,331.61295 c -3.21075,2.65779 -6.94843,4.11758 -9.83594,2.58593 l 1.02734,2.90235 0.0137,0.0254 c 0.77416,0.62168 2.04325,-0.0739 3.87891,-1.23047 z"
         style="fill:#ff575a;fill-opacity:1;stroke:none;stroke-width:1;stroke-linecap:butt;stroke-linejoin:miter;stroke-miterlimit:4;stroke-dasharray:none;stroke-opacity:1" />
      <path
         sodipodi:nodetypes="ccccc"
         id="path1049-3-1-6-0-8"
         d="m 131.07192,305.8981 3.28303,9.26181 c 6.98003,4.16947 14.17659,6.81812 19.84978,3.35147 l -0.01,-5.55859 z"
         style="fill:#ab63be;fill-opacity:1;stroke:none;stroke-width:1;stroke-linecap:butt;stroke-linejoin:miter;stroke-miterlimit:4;stroke-dasharray:none;stroke-opacity:1"
         inkscape:connector-curvature="0" />
      <path
         sodipodi:nodetypes="ccccccccc"
         inkscape:connector-curvature="0"
         id="path1047-6-2-2-2-9"
         d="m 163.75551,315.87076 v 2.97461 c -9.094,3.37847 -18.33532,9.83288 -27.31836,2.17773 v 0 l 2.08358,5.89541 c 7.38966,5.95138 14.69893,0.49754 22.79728,-4.34268 h 0.002 l 6.33203,-5.51562 z"
         style="fill:#5bd16a;fill-opacity:1;stroke:none;stroke-width:1;stroke-linecap:butt;stroke-linejoin:miter;stroke-miterlimit:4;stroke-dasharray:none;stroke-opacity:1" />
      <path
         id="path1056-7-7-6-3-7"
         d="m 156.95278,326.37857 c -5.48558,3.76738 -12.53391,8.66398 -17.03711,4.45117 l -0.01,-0.002 1.19532,3.37305 h 0.002 c 2.8908,1.53339 6.63445,0.0698 9.84765,-2.59375 z"
         style="fill:#ffc331;fill-opacity:1;stroke:none;stroke-width:1;stroke-linecap:butt;stroke-linejoin:miter;stroke-miterlimit:4;stroke-dasharray:none;stroke-opacity:1"
         inkscape:connector-curvature="0" />
      <path
         id="path815-5-0-1-7-3"
         d="m 146.02309,335.8981 c -1.83566,1.15659 -3.10475,1.85215 -3.87891,1.23047 l -0.0137,-0.0254 0.10742,0.30469 c 0.33945,0.91892 1.0422,0.80617 1.92969,0.10742 z"
         style="fill:#ff575a;fill-opacity:1;stroke:none;stroke-width:1;stroke-linecap:butt;stroke-linejoin:miter;stroke-miterlimit:4;stroke-dasharray:none;stroke-opacity:1"
         inkscape:connector-curvature="0" />
    </g>
    <ellipse
       style="opacity:1;fill:#8a6a6a;fill-opacity:1;fill-rule:nonzero;stroke:none;stroke-width:0.49900356;stroke-linecap:round;stroke-miterlimit:4;stroke-dasharray:none;stroke-opacity:1;paint-order:fill markers stroke"
       id="path817-6-9-2"
       cx="347.47943"
       cy="1060.8103"
       rx="5.1891842"
       ry="1.899991"
       transform="matrix(0.95395673,0.29994425,-0.30504644,0.95233748,0,0)" />
    <ellipse
       style="opacity:1;fill:#d25400;fill-opacity:1;fill-rule:nonzero;stroke:#d25400;stroke-width:0.49900001;stroke-linecap:round;stroke-miterlimit:4;stroke-dasharray:none;stroke-opacity:1;paint-order:fill markers stroke"
       id="path1108-0-9-7"
       cx="4.7627592"
       cy="1108.4694"
       rx="0.23175335"
       ry="0.23549937" />
    <ellipse
       style="opacity:1;fill:#b0008c;fill-opacity:1;fill-rule:nonzero;stroke:#b0008c;stroke-width:0.49900001;stroke-linecap:round;stroke-miterlimit:4;stroke-dasharray:none;stroke-opacity:1;paint-order:fill markers stroke"
       id="path1110-4-3-4"
       cx="13.870166"
       cy="1110.048"
       rx="0.30010581"
       ry="0.29521105" />
    <ellipse
       style="opacity:1;fill:#009cc3;fill-opacity:1;fill-rule:nonzero;stroke:#009cc3;stroke-width:0.49900001;stroke-linecap:round;stroke-miterlimit:4;stroke-dasharray:none;stroke-opacity:1;paint-order:fill markers stroke"
       id="path1112-8-9-1"
       cx="0.69816101"
       cy="1113.556"
       rx="0.17232938"
       ry="0.17662448" />
    <ellipse
       style="opacity:1;fill:#64b131;fill-opacity:1;fill-rule:nonzero;stroke:#64b131;stroke-width:0.49900001;stroke-linecap:round;stroke-miterlimit:4;stroke-dasharray:none;stroke-opacity:1;paint-order:fill markers stroke"
       id="path1114-7-0-8"
       cx="15.026584"
       cy="1117.3687"
       rx="0.21524431"
       ry="0.22121392" />
    <path
       style="fill:none;fill-opacity:1;stroke:#6a2929;stroke-width:0.49900001;stroke-linecap:butt;stroke-linejoin:miter;stroke-miterlimit:4;stroke-dasharray:none;stroke-opacity:1"
       d="m 5.2614527,1112.0776 a 5.1891954,1.8999598 17.406772 0 0 -2.32685,0.8286 5.1891954,1.8999598 17.406772 0 0 0.15778,0.8097 l 2.83098,7.8806 c 0.0905,0.2417 0.27791,0.212 0.51454,0.028 l 5.9489203,-5.1111 a 5.1891954,1.8999598 17.406772 0 0 0.44787,-0.4948 5.1891954,1.8999598 17.406772 0 0 -4.3704098,-3.3654 5.1891954,1.8999598 17.406772 0 0 -3.2028305,-0.5759 z"
       id="path815-2-5-1-8-5"
       inkscape:connector-curvature="0" />
    <path
       sodipodi:type="star"
       style="opacity:1;fill:#f2cb2d;fill-opacity:1;fill-rule:nonzero;stroke:none;stroke-width:2.81847668;stroke-linecap:round;stroke-miterlimit:4;stroke-dasharray:none;stroke-opacity:1;paint-order:fill markers stroke"
       id="path822-7-5-2-5"
       sodipodi:sides="5"
       sodipodi:cx="107.53423"
       sodipodi:cy="100.83036"
       sodipodi:r1="13.529488"
       sodipodi:r2="6.7647443"
       sodipodi:arg1="1.0759089"
       sodipodi:arg2="1.7042274"
       inkscape:flatsided="false"
       inkscape:rounded="0"
       inkscape:randomized="0"
       d="m 113.95983,112.73661 -7.32555,-5.20164 -8.437945,3.08573 2.683335,-8.5744 -5.54217,-7.071428 8.98394,-0.09764 5.0127,-7.456103 2.86904,8.514058 8.64019,2.463299 -7.21077,5.35961 z"
       inkscape:transform-center-x="0.14950158"
       inkscape:transform-center-y="0.082157496"
       transform="matrix(0.15076413,-0.09350903,0.09438113,0.14937105,-22.772937,1106.2279)" />
    <path
       sodipodi:type="star"
       style="opacity:1;fill:#f2cb2d;fill-opacity:1;fill-rule:nonzero;stroke:none;stroke-width:2.81847668;stroke-linecap:round;stroke-miterlimit:4;stroke-dasharray:none;stroke-opacity:1;paint-order:fill markers stroke"
       id="path822-6-6-4-1"
       sodipodi:sides="5"
       sodipodi:cx="107.53423"
       sodipodi:cy="100.83036"
       sodipodi:r1="13.529488"
       sodipodi:r2="6.7647443"
       sodipodi:arg1="1.0759089"
       sodipodi:arg2="1.7042274"
       inkscape:flatsided="false"
       inkscape:rounded="0"
       inkscape:randomized="0"
       d="m 113.95983,112.73661 -7.32555,-5.20164 -8.437945,3.08573 2.683335,-8.5744 -5.54217,-7.071428 8.98394,-0.09764 5.0127,-7.456103 2.86904,8.514058 8.64019,2.463299 -7.21077,5.35961 z"
       inkscape:transform-center-x="-0.0041307002"
       inkscape:transform-center-y="0.22377556"
       transform="matrix(0.1569963,0.08283239,-0.08360491,0.15554562,4.7123727,1089.8798)" />
    <path
       sodipodi:type="star"
       style="opacity:1;fill:#f2cb2d;fill-opacity:1;fill-rule:nonzero;stroke:none;stroke-width:1.86213779;stroke-linecap:round;stroke-miterlimit:4;stroke-dasharray:none;stroke-opacity:1;paint-order:fill markers stroke"
       id="path822-61-9-1-8"
       sodipodi:sides="5"
       sodipodi:cx="107.53423"
       sodipodi:cy="100.83036"
       sodipodi:r1="13.529488"
       sodipodi:r2="6.7647443"
       sodipodi:arg1="1.0759089"
       sodipodi:arg2="1.7042274"
       inkscape:flatsided="false"
       inkscape:rounded="0"
       inkscape:randomized="0"
       d="m 113.95983,112.73661 -7.32555,-5.20164 -8.437945,3.08573 2.683335,-8.5744 -5.54217,-7.071428 8.98394,-0.09764 5.0127,-7.456103 2.86904,8.514058 8.64019,2.463299 -7.21077,5.35961 z"
       inkscape:transform-center-x="-0.23498375"
       inkscape:transform-center-y="-0.11413591"
       transform="matrix(0.26523248,0.02140919,-0.02110655,0.26903526,-17.503797,1081.7176)" />
    <path
       style="opacity:1;fill:none;fill-opacity:1;fill-rule:nonzero;stroke:#d2a800;stroke-width:0.49900001;stroke-linecap:round;stroke-miterlimit:4;stroke-dasharray:none;stroke-opacity:1;paint-order:fill markers stroke"
       d="m 9.6500032,1107.5777 -1.4869005,1.8987 -2.38489,-0.1661 1.3207,2.0211 -0.89268,2.2494 2.3031805,-0.6495 1.8331398,1.5562 0.10272,-2.4225 2.02565,-1.2875 -2.23965,-0.8477 z"
       id="path822-61-6-6-1-8-3"
       inkscape:connector-curvature="0"
       sodipodi:nodetypes="ccccccccccc" />
    <path
       style="opacity:1;fill:none;fill-opacity:1;fill-rule:nonzero;stroke:#d2a800;stroke-width:0.49900001;stroke-linecap:round;stroke-miterlimit:4;stroke-dasharray:none;stroke-opacity:1;paint-order:fill markers stroke"
       d="m 14.568593,1112.5342 -1.41034,0.7446 -1.4186,-0.729 0.27889,1.559 -1.13813,1.1114 1.58269,0.219 0.7152,1.4159 0.69928,-1.4237 1.58017,-0.2364 -1.15054,-1.0988 z"
       id="path822-6-0-6-0-5-1"
       inkscape:connector-curvature="0"
       sodipodi:nodetypes="ccccccccccc" />
    <path
       style="opacity:1;fill:none;fill-opacity:1;fill-rule:nonzero;stroke:#d2a800;stroke-width:0.49900001;stroke-linecap:round;stroke-miterlimit:4;stroke-dasharray:none;stroke-opacity:1;paint-order:fill markers stroke"
       d="m 1.9616327,1109.0623 -0.052,1.5825 -1.34524995,0.8547 1.50298995,0.538 0.4047,1.5317 0.9809,-1.25 1.59538,0.092 -0.89674,-1.3105 0.58128,-1.4749 -1.53512,0.44 z"
       id="path822-7-6-4-6-6-8"
       inkscape:connector-curvature="0"
       sodipodi:nodetypes="ccccccccccc" />
    <path
       style="fill:none;stroke:#6a2929;stroke-width:0.49900001;stroke-linecap:butt;stroke-linejoin:miter;stroke-miterlimit:4;stroke-dasharray:none;stroke-opacity:1"
       d="m 3.0923827,1113.7159 c 1.83859,2.6414 7.7881603,3.7054 9.2944403,2.7977"
       id="path1863-1-1-9"
       inkscape:connector-curvature="0"
       sodipodi:nodetypes="cc" />
  </g>
</svg>
